<svg width="69" height="60" viewBox="0 0 69 60" fill="none" xmlns="http://www.w3.org/2000/svg">
<g id="Group">
<g id="Group_2">
<path id="Vector" d="M60.5743 38.173C58.6076 16.2221 22.8256 28.8812 17.0519 23.0077C15.9798 21.9166 15.811 20.4845 16.2415 19.3677C17.8622 15.1651 30.3551 9.93951 46.3763 8.04704C47.8367 7.87655 48.8918 6.53818 48.7145 5.0549C48.5626 3.69949 47.4315 2.71063 46.1231 2.68506C46.1062 2.68506 46.0387 2.68506 45.9374 2.68506C45.8783 2.68506 45.8192 2.68506 45.7517 2.68506C41.261 3.21358 37.0995 4.11719 33.3517 5.21687C18.7148 8.79721 -2.87766 16.0261 0.35529 26.1192C3.36033 35.4963 40.0708 26.6648 41.6915 39.6904C42.9324 49.6301 13.9371 58.0098 21.2724 59.8938C31.1823 60.0728 61.8743 52.6905 60.5743 38.1645V38.173Z" fill="#E0C2FF"/>
<g id="Group_3">
<path id="Vector_2" d="M20.9006 59.7491C20.9006 59.7491 20.9006 59.6723 20.9518 59.6125C20.9006 59.6723 20.8835 59.715 20.9006 59.7491Z" fill="#00C9F7"/>
<path id="Vector_3" d="M51.668 30.1003C50.5875 24.0222 35.7733 23.9285 23.0441 23.3829C21.6006 23.3317 20.2416 23.2721 18.9755 23.1783C11.7921 22.7521 5.95079 21.9081 4.76059 19.3081C4.2288 18.1488 4.21192 17.0576 4.59177 16.0347C0.987403 18.8137 -0.87809 22.0019 0.404963 25.5993C3.71389 34.857 43.1171 26.6563 47.0591 38.301C50.1064 35.0787 52.0394 32.1547 51.6764 30.1088L51.668 30.1003Z" fill="#A760FF"/>
<path id="Vector_4" d="M20.9009 59.7491C21.534 61.1301 70.6107 56.4586 68.7452 37.8238C68.7368 37.73 68.7199 37.6363 68.703 37.5425C56.1764 49.511 21.4073 60.6101 20.9009 59.7406V59.7491Z" fill="#A760FF"/>
<path id="Vector_5" d="M4.75156 19.3082C5.94176 21.9083 11.783 22.7522 18.9664 23.1784C13.8089 22.8033 10.2805 21.9594 9.91753 19.8282C8.61759 12.2243 32.0249 5.8564 45.843 2.78754C49.9285 1.88393 16.9743 6.48722 4.58273 16.0348C4.20288 17.0663 4.21976 18.1574 4.75156 19.3082Z" fill="#00C9F7"/>
<path id="Vector_6" d="M4.75156 19.3082C5.94176 21.9083 11.783 22.7522 18.9664 23.1784C13.8089 22.8033 10.2805 21.9594 9.91753 19.8282C8.61759 12.2243 32.0249 5.8564 45.843 2.78754C49.9285 1.88393 16.9743 6.48722 4.58273 16.0348C4.20288 17.0663 4.21976 18.1574 4.75156 19.3082Z" fill="#590696"/>
<path id="Vector_7" d="M23.0445 23.383C35.7822 23.9286 50.588 24.0224 51.6684 30.1004C52.0314 32.1463 50.0984 35.0788 47.0511 38.2926C47.1693 38.6336 47.2537 39.0001 47.3128 39.3752C48.6718 49.1189 22.3186 58.0356 20.9511 59.6041C20.9005 59.6723 20.8836 59.715 20.9005 59.7405C21.407 60.61 56.176 49.511 68.7026 37.5424C66.8456 22.2919 39.8002 23.9286 23.0445 23.3745V23.383Z" fill="#B485FF"/>
<path id="Vector_8" d="M23.0449 31.0211C29.8316 31.2854 49.3391 32.4106 49.7358 39.5372C50.0059 44.3451 44.9581 50.5595 20.9009 59.7491C66.7278 52.5202 69.1504 28.6939 23.0449 31.0211Z" fill="#590696"/>
</g>
<path id="Vector_9" d="M54.3699 7.60396C56.4491 7.60396 58.1347 5.90175 58.1347 3.80198C58.1347 1.7022 56.4491 0 54.3699 0C52.2907 0 50.6052 1.7022 50.6052 3.80198C50.6052 5.90175 52.2907 7.60396 54.3699 7.60396Z" fill="url(#paint0_linear_1_575)"/>
<path id="Vector_10" d="M51.2043 3.07736C51.2043 2.31867 51.4322 1.6026 51.812 1.0144C51.0692 1.7049 50.5965 2.70228 50.5965 3.80195C50.5965 5.89901 52.2847 7.60393 54.3612 7.60393C55.6865 7.60393 56.8429 6.91344 57.5182 5.87344C56.8514 6.49573 55.9566 6.88786 54.969 6.88786C52.8925 6.88786 51.2043 5.18294 51.2043 3.08589V3.07736Z" fill="#FF9F00"/>
</g>
<path id="Vector_11" d="M54.9777 3.08595C55.4812 3.08595 55.8893 2.67375 55.8893 2.16529C55.8893 1.65682 55.4812 1.24463 54.9777 1.24463C54.4742 1.24463 54.066 1.65682 54.066 2.16529C54.066 2.67375 54.4742 3.08595 54.9777 3.08595Z" fill="#DCFCFF"/>
</g>
<defs>
<linearGradient id="paint0_linear_1_575" x1="50.6052" y1="3.80198" x2="58.1262" y2="3.80198" gradientUnits="userSpaceOnUse">
<stop stop-color="#FFAB00"/>
<stop offset="1" stop-color="#FFC900"/>
</linearGradient>
</defs>
</svg>
