<svg width="190" height="46" viewBox="0 0 190 46" fill="none" xmlns="http://www.w3.org/2000/svg">
<g id="Group 4540">
<g id="Group">
<path id="Vector" d="M108.647 3.47142V32.4713C108.647 33.3028 107.978 33.9889 107.144 33.9889C106.321 33.9889 105.641 33.3132 105.641 32.4713V3.47142C105.641 2.63988 106.31 1.95386 107.144 1.95386C107.967 1.95386 108.647 2.62949 108.647 3.47142Z" fill="#9876CE"/>
<path id="Vector_2" d="M115.46 10.3525C114.637 10.3525 113.958 11.0282 113.958 11.8701V32.4715C113.958 33.303 114.627 33.989 115.46 33.989C116.294 33.989 116.963 33.3134 116.963 32.4715V11.8701C116.963 11.0386 116.294 10.3525 115.46 10.3525Z" fill="#9876CE"/>
<path id="Vector_3" d="M139.936 12.5354C141.706 14.2816 142.592 16.8178 142.592 20.1335V32.4923C142.592 33.3134 141.933 33.989 141.109 33.989C140.296 33.989 139.627 33.3238 139.627 32.4923V20.4869C139.627 17.9196 138.989 15.9551 137.723 14.6038C136.447 13.2526 134.718 12.5665 132.515 12.5665C130.313 12.5665 128.46 13.2837 127.112 14.7285C125.763 16.1733 125.094 18.2938 125.094 21.0898V32.4923C125.094 33.3134 124.436 33.989 123.612 33.989H123.571C122.758 33.989 122.089 33.3238 122.089 32.4923V11.8701C122.089 11.0386 122.758 10.3526 123.592 10.3526C124.415 10.3526 125.094 11.0282 125.094 11.8701V14.3751C125.835 12.9303 126.906 11.8286 128.306 11.0594C129.705 10.2902 131.29 9.91602 133.061 9.91602C135.86 9.91602 138.145 10.7891 139.916 12.5354H139.936Z" fill="#9876CE"/>
<path id="Vector_4" d="M168.889 23.3347H149.478C149.56 25.1225 149.992 26.6504 150.764 27.9185C151.536 29.1866 152.545 30.1429 153.811 30.7977C155.066 31.4422 156.435 31.7748 157.928 31.7748C159.873 31.7748 161.509 31.2967 162.837 30.3508C163.897 29.592 164.669 28.6253 165.153 27.4404C165.39 26.8791 165.915 26.5049 166.522 26.5049C167.603 26.5049 168.354 27.6483 167.87 28.6253C167.201 29.9974 166.234 31.1719 164.968 32.149C163.094 33.6042 160.748 34.3318 157.917 34.3318C155.715 34.3318 153.749 33.8329 151.999 32.835C150.26 31.8372 148.891 30.4235 147.903 28.5942C146.915 26.7648 146.421 24.6236 146.421 22.1705C146.421 19.7175 146.904 17.5659 147.882 15.7261C148.85 13.8759 150.208 12.4623 151.958 11.4853C153.697 10.5082 155.684 10.0093 157.917 10.0093C160.151 10.0093 162.096 10.4978 163.763 11.4853C165.431 12.4623 166.717 13.7824 167.623 15.4455C168.519 17.1085 168.971 18.9483 168.971 20.9648C168.971 22.0042 168.941 22.7942 168.889 23.3451V23.3347ZM164.885 16.3705C164.155 15.1336 163.167 14.1878 161.911 13.5537C160.655 12.9197 159.286 12.5974 157.794 12.5974C155.56 12.5974 153.667 13.3146 152.092 14.7594C150.517 16.2042 149.653 18.2415 149.478 20.8609H165.935C165.966 19.1042 165.616 17.5971 164.885 16.3602V16.3705Z" fill="#9876CE"/>
<path id="Vector_5" d="M174.528 32.44C173.345 31.5669 172.521 30.4651 172.069 29.1554C171.76 28.2615 172.449 27.3157 173.396 27.3157H173.654C174.271 27.3157 174.786 27.7418 174.981 28.3343C175.27 29.2074 175.825 29.9454 176.628 30.5483C177.729 31.3694 179.201 31.7852 181.064 31.7852C182.69 31.7852 183.967 31.4006 184.903 30.621C185.83 29.8415 186.293 28.8748 186.293 27.721C186.293 26.9103 186.035 26.2451 185.521 25.7254C185.006 25.2056 184.358 24.7899 183.576 24.4884C182.793 24.187 181.723 23.8648 180.385 23.5114C178.645 23.054 177.225 22.5863 176.144 22.1289C175.064 21.6716 174.137 20.9856 173.376 20.0709C172.614 19.1562 172.244 17.9401 172.244 16.4121C172.244 15.2584 172.583 14.1878 173.273 13.2107C173.962 12.2336 174.93 11.4541 176.186 10.872C177.441 10.3003 178.872 10.0093 180.467 10.0093C182.979 10.0093 185.006 10.6537 186.55 11.9322C187.651 12.8573 188.392 14.0215 188.763 15.4351C189 16.3394 188.31 17.2333 187.384 17.2333H187.229C186.56 17.2333 186.025 16.7551 185.85 16.1107C185.603 15.2272 185.13 14.4892 184.43 13.8759C183.442 13.0236 182.093 12.5974 180.385 12.5974C178.872 12.5974 177.647 12.9612 176.7 13.6784C175.753 14.3956 175.29 15.2895 175.29 16.3602C175.29 17.2852 175.568 18.044 176.124 18.6365C176.68 19.229 177.369 19.6863 178.203 20.0189C179.037 20.3515 180.148 20.7153 181.548 21.1207C183.236 21.5781 184.574 22.025 185.572 22.4616C186.571 22.8981 187.425 23.5322 188.145 24.3637C188.856 25.2056 189.226 26.3074 189.257 27.7003C189.257 28.9684 188.917 30.1013 188.228 31.0992C187.538 32.097 186.581 32.8766 185.356 33.4587C184.131 34.0303 182.711 34.3214 181.116 34.3214C178.429 34.3214 176.237 33.6977 174.539 32.44H174.528Z" fill="#9876CE"/>
</g>
<g id="Group_2">
<path id="Vector_6" d="M5.98121 33.1989C4.31384 32.4817 2.98611 31.4423 2.01863 30.0806C1.05114 28.7294 0.546807 27.1287 0.51593 25.2785H6.93841C7.02075 26.5154 7.46332 27.5029 8.24555 28.2201C9.02777 28.9373 10.1085 29.3011 11.4774 29.3011C12.8463 29.3011 13.9784 28.958 14.7812 28.2824C15.5841 27.6068 15.9855 26.7129 15.9855 25.6215C15.9855 24.7276 15.7179 23.9896 15.1724 23.4179C14.6269 22.8462 13.9476 22.3889 13.1345 22.0563C12.3214 21.7237 11.1995 21.3599 9.76883 20.9545C7.82356 20.3828 6.24882 19.8111 5.03431 19.2498C3.8198 18.6886 2.78027 17.8362 1.90541 16.6929C1.03055 15.5495 0.59827 14.0319 0.59827 12.1298C0.59827 10.342 1.04084 8.78286 1.92599 7.4524C2.81114 6.12193 4.05653 5.11369 5.65185 4.40689C7.24718 3.70008 9.07923 3.34668 11.1377 3.34668C14.2255 3.34668 16.7265 4.10546 18.6615 5.62302C20.5862 7.14057 21.6566 9.2506 21.8521 11.9635H15.2547C15.1929 10.9241 14.7607 10.0717 13.9476 9.38572C13.1345 8.7101 12.0537 8.36709 10.7157 8.36709C9.54239 8.36709 8.60578 8.66852 7.9059 9.27138C7.20601 9.87425 6.85607 10.7578 6.85607 11.9115C6.85607 12.7223 7.12367 13.3875 7.64859 13.928C8.1735 14.4581 8.83222 14.8947 9.62473 15.2273C10.407 15.5599 11.5185 15.9445 12.9492 16.3706C14.8945 16.9527 16.4795 17.5244 17.7043 18.1065C18.9291 18.6886 19.9892 19.5513 20.8744 20.705C21.7595 21.8588 22.2021 23.3764 22.2021 25.2473C22.2021 26.8584 21.7904 28.3656 20.9567 29.748C20.123 31.1304 18.9188 32.2322 17.3132 33.0638C15.7179 33.8849 13.8138 34.3007 11.6112 34.3007C9.52181 34.3007 7.64859 33.9369 5.98121 33.2197V33.1989Z" fill="#590696"/>
<path id="Vector_7" d="M61.2823 14.9778H57.1241V33.9784H54.2834C52.4925 33.9784 51.031 32.5128 51.031 30.6939V8.79323C51.031 5.85166 51.8544 3.68967 53.5115 2.30723C55.1686 0.924803 57.6696 0.269963 61.0147 0.363512V5.46708C59.5531 5.4359 58.5445 5.68536 57.9681 6.20507C57.3917 6.72478 57.1138 7.66026 57.1138 9.0219V10.0197H61.272V14.9986L61.2823 14.9778Z" fill="#590696"/>
<path id="Vector_8" d="M69.3313 14.978V26.578C69.3313 27.3887 69.5268 27.9708 69.9076 28.3346C70.2885 28.6984 70.9472 28.8751 71.8529 28.8751H74.6422V33.9786H70.8751C65.8215 33.9786 63.2896 31.4944 63.2896 26.5364V8.1282C63.2896 6.65222 64.4732 5.46729 65.9245 5.46729H69.3313V10.0096H73.7056L75.6199 14.9884H69.3416L69.3313 14.978Z" fill="#590696"/>
<path id="Vector_9" d="M101.062 10.0094L87.3014 43.0631C86.7353 44.4351 85.4076 45.3186 83.9358 45.3186H79.9732L85.1194 33.3756L75.6092 10.0094H79.4586C81.1877 10.0094 82.7316 11.1008 83.3285 12.7327L88.4644 26.7545L93.8989 12.1091C94.3723 10.841 95.5662 9.99902 96.9042 9.99902H101.062V10.0094Z" fill="#590696"/>
<path id="Vector_10" d="M36.5078 9.14648C29.7148 9.14648 24.2084 14.7074 24.2084 21.5676C24.2084 28.4278 29.7148 33.9887 36.5078 33.9887C43.3008 33.9887 48.8073 28.4278 48.8073 21.5676C48.8073 14.7074 43.3008 9.14648 36.5078 9.14648ZM36.5078 27.8353C33.0805 27.8353 30.3015 25.0289 30.3015 21.5676C30.3015 18.1063 33.0805 15.2999 36.5078 15.2999C39.9352 15.2999 42.7142 18.1063 42.7142 21.5676C42.7142 25.0289 39.9352 27.8353 36.5078 27.8353Z" fill="#590696"/>
</g>
<g id="Group_3">
<path id="Vector_11" d="M115.461 7.94093C117.098 7.94093 118.425 6.60069 118.425 4.9474C118.425 3.29411 117.098 1.95386 115.461 1.95386C113.824 1.95386 112.497 3.29411 112.497 4.9474C112.497 6.60069 113.824 7.94093 115.461 7.94093Z" fill="url(#paint0_linear_1_590)"/>
<path id="Vector_12" d="M112.98 4.37579C112.98 3.77292 113.155 3.22203 113.464 2.7439C112.877 3.29479 112.507 4.07436 112.507 4.93708C112.507 6.58976 113.834 7.93061 115.471 7.93061C116.51 7.93061 117.426 7.39012 117.951 6.56897C117.426 7.0575 116.716 7.36933 115.944 7.36933C114.308 7.36933 112.98 6.02847 112.98 4.37579Z" fill="#FF9F00"/>
<path id="Vector_13" d="M115.945 4.3861C116.343 4.3861 116.666 4.06034 116.666 3.6585C116.666 3.25666 116.343 2.93091 115.945 2.93091C115.547 2.93091 115.225 3.25666 115.225 3.6585C115.225 4.06034 115.547 4.3861 115.945 4.3861Z" fill="#DCFCFF"/>
</g>
</g>
<defs>
<linearGradient id="paint0_linear_1_590" x1="112.497" y1="4.9474" x2="118.425" y2="4.9474" gradientUnits="userSpaceOnUse">
<stop stop-color="#FFAB00"/>
<stop offset="1" stop-color="#FFC900"/>
</linearGradient>
</defs>
</svg>
