<svg width="1430" height="384" viewBox="0 0 1430 384" fill="none" xmlns="http://www.w3.org/2000/svg">
<ellipse cx="390.5" cy="192" rx="100.5" ry="101" fill="url(#paint0_linear_1248_556)"/>
<path d="M581.334 175.869C581.628 179.422 581.827 183.002 581.926 186.608L580.926 186.635C580.975 188.417 581 190.206 581 192C581 193.794 580.975 195.583 580.926 197.365L581.926 197.393C581.827 200.998 581.628 204.578 581.334 208.131L580.337 208.048C580.041 211.622 579.646 215.167 579.156 218.681L580.147 218.82C579.649 222.387 579.054 225.923 578.364 229.424L577.383 229.231C576.691 232.744 575.902 236.223 575.021 239.664L575.99 239.912C575.096 243.399 574.107 246.848 573.026 250.256L572.073 249.953C570.991 253.365 569.816 256.734 568.551 260.059L569.485 260.415C568.207 263.776 566.837 267.091 565.378 270.358L564.465 269.95C563.008 273.214 561.462 276.43 559.831 279.594L560.719 280.053C559.073 283.245 557.34 286.385 555.524 289.47L554.662 288.963C552.85 292.041 550.953 295.063 548.977 298.027L549.809 298.582C547.817 301.569 545.744 304.496 543.593 307.361L542.793 306.761C540.65 309.616 538.428 312.409 536.132 315.136L536.897 315.78C534.586 318.525 532.2 321.203 529.742 323.813L529.014 323.127C526.567 325.724 524.049 328.252 521.462 330.708L522.15 331.434C519.55 333.902 516.881 336.299 514.146 338.62L513.499 337.857C510.78 340.164 507.996 342.397 505.149 344.551L505.753 345.348C502.895 347.51 499.975 349.594 496.996 351.596L496.438 350.766C493.481 352.754 490.465 354.66 487.394 356.483L487.905 357.343C484.825 359.17 481.691 360.914 478.504 362.57L478.043 361.683C474.884 363.324 471.673 364.88 468.413 366.347L468.823 367.259C465.561 368.727 462.249 370.106 458.892 371.393L458.534 370.46C455.212 371.733 451.846 372.917 448.438 374.006L448.742 374.959C445.336 376.048 441.89 377.044 438.404 377.944L438.154 376.975C434.715 377.864 431.237 378.658 427.726 379.355L427.92 380.336C424.42 381.031 420.885 381.631 417.318 382.132L417.179 381.142C413.665 381.636 410.12 382.033 406.547 382.332L406.631 383.328C403.078 383.626 399.498 383.825 395.892 383.925L395.865 382.926C394.082 382.975 392.294 383 390.5 383C388.706 383 386.918 382.975 385.135 382.926L385.108 383.925C381.502 383.825 377.922 383.626 374.369 383.328L374.453 382.332C370.88 382.033 367.335 381.636 363.821 381.142L363.682 382.132C360.116 381.631 356.58 381.031 353.08 380.336L353.274 379.355C349.763 378.658 346.285 377.864 342.846 376.975L342.596 377.944C339.11 377.044 335.664 376.048 332.258 374.959L332.563 374.006C329.154 372.917 325.788 371.733 322.466 370.46L322.108 371.393C318.751 370.106 315.44 368.727 312.177 367.259L312.587 366.347C309.327 364.88 306.116 363.325 302.957 361.683L302.496 362.57C299.309 360.914 296.175 359.17 293.096 357.343L293.606 356.483C290.535 354.661 287.519 352.754 284.562 350.766L284.004 351.596C281.025 349.594 278.105 347.51 275.248 345.348L275.851 344.551C273.004 342.397 270.22 340.164 267.501 337.857L266.854 338.62C264.119 336.299 261.45 333.902 258.85 331.434L259.538 330.708C256.951 328.252 254.433 325.724 251.986 323.127L251.258 323.813C248.8 321.203 246.414 318.525 244.103 315.78L244.868 315.136C242.572 312.409 240.35 309.616 238.207 306.761L237.407 307.361C235.256 304.496 233.183 301.569 231.191 298.582L232.023 298.027C230.047 295.063 228.15 292.041 226.338 288.963L225.476 289.47C223.66 286.385 221.927 283.245 220.281 280.053L221.169 279.594C219.538 276.43 217.992 273.214 216.535 269.95L215.622 270.358C214.163 267.091 212.793 263.776 211.515 260.415L212.449 260.059C211.184 256.734 210.009 253.365 208.927 249.953L207.974 250.256C206.893 246.848 205.904 243.399 205.011 239.912L205.979 239.664C205.098 236.223 204.309 232.744 203.617 229.231L202.636 229.424C201.946 225.923 201.351 222.387 200.853 218.819L201.844 218.681C201.354 215.167 200.959 211.622 200.663 208.048L199.666 208.131C199.372 204.578 199.173 200.998 199.074 197.392L200.074 197.365C200.025 195.583 200 193.794 200 192C200 190.206 200.025 188.417 200.074 186.635L199.074 186.608C199.173 183.002 199.372 179.422 199.666 175.869L200.663 175.952C200.959 172.378 201.354 168.833 201.844 165.319L200.853 165.181C201.351 161.613 201.946 158.077 202.636 154.576L203.617 154.769C204.309 151.256 205.098 147.777 205.979 144.336L205.011 144.088C205.904 140.601 206.893 137.152 207.974 133.744L208.927 134.047C210.009 130.635 211.184 127.266 212.449 123.941L211.515 123.585C212.793 120.224 214.163 116.909 215.622 113.642L216.535 114.05C217.992 110.786 219.538 107.57 221.169 104.406L220.281 103.947C221.927 100.755 223.66 97.6145 225.476 94.5296L226.338 95.037C228.15 91.9591 230.047 88.9366 232.023 85.9726L231.191 85.4178C233.183 82.4312 235.256 79.5038 237.407 76.6387L238.207 77.2392C240.35 74.3841 242.572 71.5912 244.868 68.8637L244.103 68.2196C246.414 65.4753 248.8 62.7967 251.258 60.1873L251.986 60.873C254.433 58.276 256.951 55.7478 259.538 53.2916L258.85 52.5664C261.45 50.0976 264.119 47.7012 266.854 45.3804L267.501 46.1428C270.22 43.8356 273.004 41.6034 275.851 39.4495L275.247 38.652C278.105 36.4898 281.025 34.406 284.004 32.4038L284.562 33.2338C287.519 31.2462 290.535 29.3395 293.606 27.5168L293.096 26.6569C296.175 24.8295 299.309 23.0862 302.496 21.43L302.957 22.3174C306.116 20.6755 309.327 19.1197 312.587 17.6532L312.177 16.7412C315.439 15.2732 318.751 13.894 322.108 12.6068L322.466 13.5405C325.788 12.2666 329.154 11.0833 332.562 9.99363L332.258 9.04113C335.664 7.95228 339.11 6.95637 342.596 6.05636L342.846 7.0246C346.285 6.13644 349.763 5.34216 353.274 4.64467L353.08 3.66383C356.58 2.96855 360.115 2.36895 363.682 1.86784L363.821 2.85811C367.335 2.3644 370.88 1.96679 374.453 1.66803L374.369 0.67151C377.922 0.374431 381.502 0.174591 385.108 0.0746525L385.135 1.07427C386.918 1.02486 388.706 1 390.5 1C392.294 1 394.083 1.02487 395.865 1.07427L395.892 0.0746533C399.498 0.174593 403.078 0.374432 406.631 0.671511L406.547 1.66803C410.12 1.96679 413.665 2.3644 417.179 2.85811L417.318 1.86784C420.885 2.36895 424.42 2.96856 427.92 3.66383L427.726 4.64468C431.237 5.34216 434.715 6.13644 438.154 7.0246L438.404 6.05636C441.89 6.95636 445.336 7.95228 448.742 9.04113L448.438 9.99363C451.846 11.0833 455.212 12.2666 458.534 13.5405L458.892 12.6068C462.249 13.894 465.56 15.2732 468.823 16.7412L468.413 17.6532C471.673 19.1197 474.884 20.6755 478.043 22.3174L478.504 21.43C481.691 23.0862 484.825 24.8295 487.904 26.6569L487.394 27.5168C490.465 29.3395 493.481 31.2462 496.438 33.2337L496.996 32.4038C499.975 34.406 502.895 36.4898 505.752 38.652L505.149 39.4495C507.996 41.6034 510.78 43.8356 513.499 46.1428L514.146 45.3803C516.881 47.7012 519.55 50.0976 522.15 52.5663L521.462 53.2915C524.049 55.7478 526.567 58.276 529.014 60.873L529.742 60.1873C532.2 62.7967 534.586 65.4752 536.897 68.2196L536.132 68.8637C538.428 71.5912 540.65 74.384 542.793 77.2391L543.593 76.6387C545.744 79.5038 547.817 82.4312 549.809 85.4177L548.977 85.9726C550.953 88.9366 552.85 91.9591 554.662 95.037L555.524 94.5296C557.34 97.6145 559.073 100.755 560.719 103.947L559.831 104.406C561.462 107.57 563.008 110.786 564.465 114.05L565.379 113.642C566.837 116.909 568.207 120.224 569.485 123.585L568.551 123.941C569.816 127.266 570.991 130.635 572.073 134.047L573.026 133.744C574.107 137.152 575.096 140.601 575.99 144.088L575.021 144.336C575.902 147.777 576.691 151.256 577.383 154.769L578.364 154.576C579.054 158.077 579.649 161.613 580.147 165.18L579.156 165.319C579.646 168.833 580.041 172.378 580.337 175.952L581.334 175.869Z" stroke="url(#paint1_linear_1248_556)" stroke-width="2" stroke-dasharray="11 11"/>
<path d="M1230.33 175.869C1230.63 179.422 1230.83 183.002 1230.93 186.608L1229.93 186.635C1229.98 188.417 1230 190.206 1230 192C1230 193.794 1229.98 195.583 1229.93 197.365L1230.93 197.393C1230.83 200.998 1230.63 204.578 1230.33 208.131L1229.34 208.048C1229.04 211.622 1228.65 215.167 1228.16 218.681L1229.15 218.82C1228.65 222.387 1228.05 225.923 1227.36 229.424L1226.38 229.231C1225.69 232.744 1224.9 236.223 1224.02 239.664L1224.99 239.912C1224.1 243.399 1223.11 246.848 1222.03 250.256L1221.07 249.953C1219.99 253.365 1218.82 256.734 1217.55 260.059L1218.49 260.415C1217.21 263.776 1215.84 267.091 1214.38 270.358L1213.47 269.95C1212.01 273.214 1210.46 276.43 1208.83 279.594L1209.72 280.053C1208.07 283.245 1206.34 286.385 1204.52 289.47L1203.66 288.963C1201.85 292.041 1199.95 295.063 1197.98 298.027L1198.81 298.582C1196.82 301.569 1194.74 304.496 1192.59 307.361L1191.79 306.761C1189.65 309.616 1187.43 312.409 1185.13 315.136L1185.9 315.78C1183.59 318.525 1181.2 321.203 1178.74 323.813L1178.01 323.127C1175.57 325.724 1173.05 328.252 1170.46 330.708L1171.15 331.434C1168.55 333.902 1165.88 336.299 1163.15 338.62L1162.5 337.857C1159.78 340.164 1157 342.397 1154.15 344.551L1154.75 345.348C1151.9 347.51 1148.98 349.594 1146 351.596L1145.44 350.766C1142.48 352.754 1139.47 354.66 1136.39 356.483L1136.9 357.343C1133.83 359.17 1130.69 360.914 1127.5 362.57L1127.04 361.683C1123.88 363.324 1120.67 364.88 1117.41 366.347L1117.82 367.259C1114.56 368.727 1111.25 370.106 1107.89 371.393L1107.53 370.46C1104.21 371.733 1100.85 372.917 1097.44 374.006L1097.74 374.959C1094.34 376.048 1090.89 377.044 1087.4 377.944L1087.15 376.975C1083.71 377.864 1080.24 378.658 1076.73 379.355L1076.92 380.336C1073.42 381.031 1069.88 381.631 1066.32 382.132L1066.18 381.142C1062.66 381.636 1059.12 382.033 1055.55 382.332L1055.63 383.328C1052.08 383.626 1048.5 383.825 1044.89 383.925L1044.86 382.926C1043.08 382.975 1041.29 383 1039.5 383C1037.71 383 1035.92 382.975 1034.14 382.926L1034.11 383.925C1030.5 383.825 1026.92 383.626 1023.37 383.328L1023.45 382.332C1019.88 382.033 1016.34 381.636 1012.82 381.142L1012.68 382.132C1009.12 381.631 1005.58 381.031 1002.08 380.336L1002.27 379.355C998.763 378.658 995.285 377.864 991.846 376.975L991.596 377.944C988.11 377.044 984.664 376.048 981.258 374.959L981.563 374.006C978.154 372.917 974.788 371.733 971.466 370.46L971.108 371.393C967.751 370.106 964.44 368.727 961.177 367.259L961.587 366.347C958.327 364.88 955.116 363.325 951.957 361.683L951.496 362.57C948.309 360.914 945.175 359.17 942.096 357.343L942.606 356.483C939.535 354.661 936.519 352.754 933.562 350.766L933.004 351.596C930.025 349.594 927.105 347.51 924.248 345.348L924.851 344.551C922.004 342.397 919.22 340.164 916.501 337.857L915.854 338.62C913.119 336.299 910.45 333.902 907.85 331.434L908.538 330.708C905.951 328.252 903.433 325.724 900.986 323.127L900.258 323.813C897.8 321.203 895.414 318.525 893.103 315.78L893.868 315.136C891.572 312.409 889.35 309.616 887.207 306.761L886.407 307.361C884.256 304.496 882.183 301.569 880.191 298.582L881.023 298.027C879.047 295.063 877.15 292.041 875.338 288.963L874.476 289.47C872.66 286.385 870.927 283.245 869.281 280.053L870.169 279.594C868.538 276.43 866.992 273.214 865.535 269.95L864.622 270.358C863.163 267.091 861.793 263.776 860.515 260.415L861.449 260.059C860.184 256.734 859.009 253.365 857.927 249.953L856.974 250.256C855.893 246.848 854.904 243.399 854.011 239.912L854.979 239.664C854.098 236.223 853.309 232.744 852.617 229.231L851.636 229.424C850.946 225.923 850.351 222.387 849.853 218.819L850.844 218.681C850.354 215.167 849.959 211.622 849.663 208.048L848.666 208.131C848.372 204.578 848.173 200.998 848.074 197.392L849.074 197.365C849.025 195.583 849 193.794 849 192C849 190.206 849.025 188.417 849.074 186.635L848.074 186.608C848.173 183.002 848.372 179.422 848.666 175.869L849.663 175.952C849.959 172.378 850.354 168.833 850.844 165.319L849.853 165.181C850.351 161.613 850.946 158.077 851.636 154.576L852.617 154.769C853.309 151.256 854.098 147.777 854.979 144.336L854.011 144.088C854.904 140.601 855.893 137.152 856.974 133.744L857.927 134.047C859.009 130.635 860.184 127.266 861.449 123.941L860.515 123.585C861.793 120.224 863.163 116.909 864.622 113.642L865.535 114.05C866.992 110.786 868.538 107.57 870.169 104.406L869.281 103.947C870.927 100.755 872.66 97.6145 874.476 94.5296L875.338 95.037C877.15 91.9591 879.047 88.9366 881.023 85.9726L880.191 85.4178C882.183 82.4312 884.256 79.5038 886.407 76.6387L887.207 77.2392C889.35 74.3841 891.572 71.5912 893.868 68.8637L893.103 68.2196C895.414 65.4753 897.8 62.7967 900.258 60.1873L900.986 60.873C903.433 58.276 905.951 55.7478 908.538 53.2916L907.85 52.5664C910.45 50.0976 913.119 47.7012 915.854 45.3804L916.501 46.1428C919.22 43.8356 922.004 41.6034 924.851 39.4495L924.247 38.652C927.105 36.4898 930.025 34.406 933.004 32.4038L933.562 33.2338C936.519 31.2462 939.535 29.3395 942.606 27.5168L942.096 26.6569C945.175 24.8295 948.309 23.0862 951.496 21.43L951.957 22.3174C955.116 20.6755 958.327 19.1197 961.587 17.6532L961.177 16.7412C964.439 15.2732 967.751 13.894 971.108 12.6068L971.466 13.5405C974.788 12.2666 978.154 11.0833 981.562 9.99363L981.258 9.04113C984.664 7.95228 988.11 6.95637 991.596 6.05636L991.846 7.0246C995.285 6.13644 998.763 5.34216 1002.27 4.64467L1002.08 3.66383C1005.58 2.96855 1009.12 2.36895 1012.68 1.86784L1012.82 2.85811C1016.34 2.3644 1019.88 1.96679 1023.45 1.66803L1023.37 0.67151C1026.92 0.374431 1030.5 0.174591 1034.11 0.0746525L1034.14 1.07427C1035.92 1.02486 1037.71 1 1039.5 1C1041.29 1 1043.08 1.02487 1044.86 1.07427L1044.89 0.0746533C1048.5 0.174593 1052.08 0.374432 1055.63 0.671511L1055.55 1.66803C1059.12 1.96679 1062.66 2.3644 1066.18 2.85811L1066.32 1.86784C1069.88 2.36895 1073.42 2.96856 1076.92 3.66383L1076.73 4.64468C1080.24 5.34216 1083.71 6.13644 1087.15 7.0246L1087.4 6.05636C1090.89 6.95636 1094.34 7.95228 1097.74 9.04113L1097.44 9.99363C1100.85 11.0833 1104.21 12.2666 1107.53 13.5405L1107.89 12.6068C1111.25 13.894 1114.56 15.2732 1117.82 16.7412L1117.41 17.6532C1120.67 19.1197 1123.88 20.6755 1127.04 22.3174L1127.5 21.43C1130.69 23.0862 1133.83 24.8295 1136.9 26.6569L1136.39 27.5168C1139.47 29.3395 1142.48 31.2462 1145.44 33.2337L1146 32.4038C1148.98 34.406 1151.89 36.4898 1154.75 38.652L1154.15 39.4495C1157 41.6034 1159.78 43.8356 1162.5 46.1428L1163.15 45.3803C1165.88 47.7012 1168.55 50.0976 1171.15 52.5663L1170.46 53.2915C1173.05 55.7478 1175.57 58.276 1178.01 60.873L1178.74 60.1873C1181.2 62.7967 1183.59 65.4752 1185.9 68.2196L1185.13 68.8637C1187.43 71.5912 1189.65 74.384 1191.79 77.2391L1192.59 76.6387C1194.74 79.5038 1196.82 82.4312 1198.81 85.4177L1197.98 85.9726C1199.95 88.9366 1201.85 91.9591 1203.66 95.037L1204.52 94.5296C1206.34 97.6145 1208.07 100.755 1209.72 103.947L1208.83 104.406C1210.46 107.57 1212.01 110.786 1213.47 114.05L1214.38 113.642C1215.84 116.909 1217.21 120.224 1218.49 123.585L1217.55 123.941C1218.82 127.266 1219.99 130.635 1221.07 134.047L1222.03 133.744C1223.11 137.152 1224.1 140.601 1224.99 144.088L1224.02 144.336C1224.9 147.777 1225.69 151.256 1226.38 154.769L1227.36 154.576C1228.05 158.077 1228.65 161.613 1229.15 165.18L1228.16 165.319C1228.65 168.833 1229.04 172.378 1229.34 175.952L1230.33 175.869Z" stroke="url(#paint2_linear_1248_556)" stroke-width="2" stroke-dasharray="11 11"/>
<circle cx="715" cy="192" r="101" fill="url(#paint3_linear_1248_556)"/>
<ellipse cx="1039.5" cy="192" rx="100.5" ry="101" fill="url(#paint4_linear_1248_556)"/>
<path d="M340.133 191.6C340.133 189.952 340.501 188.48 341.237 187.184C341.989 185.872 343.005 184.856 344.285 184.136C345.581 183.4 347.029 183.032 348.629 183.032C350.501 183.032 352.141 183.512 353.549 184.472C354.957 185.432 355.941 186.76 356.501 188.456H352.637C352.253 187.656 351.709 187.056 351.005 186.656C350.317 186.256 349.517 186.056 348.605 186.056C347.629 186.056 346.757 186.288 345.989 186.752C345.237 187.2 344.645 187.84 344.213 188.672C343.797 189.504 343.589 190.48 343.589 191.6C343.589 192.704 343.797 193.68 344.213 194.528C344.645 195.36 345.237 196.008 345.989 196.472C346.757 196.92 347.629 197.144 348.605 197.144C349.517 197.144 350.317 196.944 351.005 196.544C351.709 196.128 352.253 195.52 352.637 194.72H356.501C355.941 196.432 354.957 197.768 353.549 198.728C352.157 199.672 350.517 200.144 348.629 200.144C347.029 200.144 345.581 199.784 344.285 199.064C343.005 198.328 341.989 197.312 341.237 196.016C340.501 194.72 340.133 193.248 340.133 191.6ZM365.275 200.216C363.995 200.216 362.843 199.936 361.819 199.376C360.795 198.8 359.987 197.992 359.395 196.952C358.819 195.912 358.531 194.712 358.531 193.352C358.531 191.992 358.827 190.792 359.419 189.752C360.027 188.712 360.851 187.912 361.891 187.352C362.931 186.776 364.091 186.488 365.371 186.488C366.651 186.488 367.811 186.776 368.851 187.352C369.891 187.912 370.707 188.712 371.299 189.752C371.907 190.792 372.211 191.992 372.211 193.352C372.211 194.712 371.899 195.912 371.275 196.952C370.667 197.992 369.835 198.8 368.779 199.376C367.739 199.936 366.571 200.216 365.275 200.216ZM365.275 197.288C365.883 197.288 366.451 197.144 366.979 196.856C367.523 196.552 367.955 196.104 368.275 195.512C368.595 194.92 368.755 194.2 368.755 193.352C368.755 192.088 368.419 191.12 367.747 190.448C367.091 189.76 366.283 189.416 365.323 189.416C364.363 189.416 363.555 189.76 362.899 190.448C362.259 191.12 361.939 192.088 361.939 193.352C361.939 194.616 362.251 195.592 362.875 196.28C363.515 196.952 364.315 197.288 365.275 197.288ZM382.044 186.512C383.628 186.512 384.908 187.016 385.884 188.024C386.86 189.016 387.348 190.408 387.348 192.2V200H383.988V192.656C383.988 191.6 383.724 190.792 383.196 190.232C382.668 189.656 381.948 189.368 381.036 189.368C380.108 189.368 379.372 189.656 378.828 190.232C378.3 190.792 378.036 191.6 378.036 192.656V200H374.676V186.704H378.036V188.36C378.484 187.784 379.052 187.336 379.74 187.016C380.444 186.68 381.212 186.512 382.044 186.512ZM389.679 193.352C389.679 191.976 389.959 190.776 390.519 189.752C391.079 188.712 391.855 187.912 392.847 187.352C393.839 186.776 394.975 186.488 396.255 186.488C397.903 186.488 399.263 186.904 400.335 187.736C401.423 188.552 402.151 189.704 402.519 191.192H398.895C398.703 190.616 398.375 190.168 397.911 189.848C397.463 189.512 396.903 189.344 396.231 189.344C395.271 189.344 394.511 189.696 393.951 190.4C393.391 191.088 393.111 192.072 393.111 193.352C393.111 194.616 393.391 195.6 393.951 196.304C394.511 196.992 395.271 197.336 396.231 197.336C397.591 197.336 398.479 196.728 398.895 195.512H402.519C402.151 196.952 401.423 198.096 400.335 198.944C399.247 199.792 397.887 200.216 396.255 200.216C394.975 200.216 393.839 199.936 392.847 199.376C391.855 198.8 391.079 198 390.519 196.976C389.959 195.936 389.679 194.728 389.679 193.352ZM417.34 193.064C417.34 193.544 417.308 193.976 417.244 194.36H407.524C407.604 195.32 407.94 196.072 408.532 196.616C409.124 197.16 409.852 197.432 410.716 197.432C411.964 197.432 412.852 196.896 413.38 195.824H417.004C416.62 197.104 415.884 198.16 414.796 198.992C413.708 199.808 412.372 200.216 410.788 200.216C409.508 200.216 408.356 199.936 407.332 199.376C406.324 198.8 405.532 197.992 404.956 196.952C404.396 195.912 404.116 194.712 404.116 193.352C404.116 191.976 404.396 190.768 404.956 189.728C405.516 188.688 406.3 187.888 407.308 187.328C408.316 186.768 409.476 186.488 410.788 186.488C412.052 186.488 413.18 186.76 414.172 187.304C415.18 187.848 415.956 188.624 416.5 189.632C417.06 190.624 417.34 191.768 417.34 193.064ZM413.86 192.104C413.844 191.24 413.532 190.552 412.924 190.04C412.316 189.512 411.572 189.248 410.692 189.248C409.86 189.248 409.156 189.504 408.58 190.016C408.02 190.512 407.676 191.208 407.548 192.104H413.86ZM423.153 188.624C423.585 188.016 424.177 187.512 424.929 187.112C425.697 186.696 426.569 186.488 427.545 186.488C428.681 186.488 429.705 186.768 430.617 187.328C431.545 187.888 432.273 188.688 432.801 189.728C433.345 190.752 433.617 191.944 433.617 193.304C433.617 194.664 433.345 195.872 432.801 196.928C432.273 197.968 431.545 198.776 430.617 199.352C429.705 199.928 428.681 200.216 427.545 200.216C426.569 200.216 425.705 200.016 424.953 199.616C424.217 199.216 423.617 198.712 423.153 198.104V206.336H419.793V186.704H423.153V188.624ZM430.185 193.304C430.185 192.504 430.017 191.816 429.681 191.24C429.361 190.648 428.929 190.2 428.385 189.896C427.857 189.592 427.281 189.44 426.657 189.44C426.049 189.44 425.473 189.6 424.929 189.92C424.401 190.224 423.969 190.672 423.633 191.264C423.313 191.856 423.153 192.552 423.153 193.352C423.153 194.152 423.313 194.848 423.633 195.44C423.969 196.032 424.401 196.488 424.929 196.808C425.473 197.112 426.049 197.264 426.657 197.264C427.281 197.264 427.857 197.104 428.385 196.784C428.929 196.464 429.361 196.008 429.681 195.416C430.017 194.824 430.185 194.12 430.185 193.304ZM439.97 189.464V195.896C439.97 196.344 440.074 196.672 440.282 196.88C440.506 197.072 440.874 197.168 441.386 197.168H442.946V200H440.834C438.002 200 436.586 198.624 436.586 195.872V189.464H435.002V186.704H436.586V183.416H439.97V186.704H442.946V189.464H439.97Z" fill="white"/>
<path d="M679.559 183.248C681.319 183.248 682.863 183.592 684.191 184.28C685.535 184.968 686.567 185.952 687.287 187.232C688.023 188.496 688.391 189.968 688.391 191.648C688.391 193.328 688.023 194.8 687.287 196.064C686.567 197.312 685.535 198.28 684.191 198.968C682.863 199.656 681.319 200 679.559 200H673.703V183.248H679.559ZM679.439 197.144C681.199 197.144 682.559 196.664 683.519 195.704C684.479 194.744 684.959 193.392 684.959 191.648C684.959 189.904 684.479 188.544 683.519 187.568C682.559 186.576 681.199 186.08 679.439 186.08H677.063V197.144H679.439ZM703.266 193.064C703.266 193.544 703.234 193.976 703.17 194.36H693.45C693.53 195.32 693.866 196.072 694.458 196.616C695.05 197.16 695.778 197.432 696.642 197.432C697.89 197.432 698.778 196.896 699.306 195.824H702.93C702.546 197.104 701.81 198.16 700.722 198.992C699.634 199.808 698.298 200.216 696.714 200.216C695.434 200.216 694.282 199.936 693.258 199.376C692.25 198.8 691.458 197.992 690.882 196.952C690.322 195.912 690.042 194.712 690.042 193.352C690.042 191.976 690.322 190.768 690.882 189.728C691.442 188.688 692.226 187.888 693.234 187.328C694.242 186.768 695.402 186.488 696.714 186.488C697.978 186.488 699.106 186.76 700.098 187.304C701.106 187.848 701.882 188.624 702.426 189.632C702.986 190.624 703.266 191.768 703.266 193.064ZM699.786 192.104C699.77 191.24 699.458 190.552 698.85 190.04C698.242 189.512 697.498 189.248 696.618 189.248C695.786 189.248 695.082 189.504 694.506 190.016C693.946 190.512 693.602 191.208 693.474 192.104H699.786ZM710.807 200.216C709.719 200.216 708.743 200.024 707.879 199.64C707.015 199.24 706.327 198.704 705.815 198.032C705.319 197.36 705.047 196.616 704.999 195.8H708.383C708.447 196.312 708.695 196.736 709.127 197.072C709.575 197.408 710.127 197.576 710.783 197.576C711.423 197.576 711.919 197.448 712.271 197.192C712.639 196.936 712.823 196.608 712.823 196.208C712.823 195.776 712.599 195.456 712.151 195.248C711.719 195.024 711.023 194.784 710.062 194.528C709.071 194.288 708.255 194.04 707.615 193.784C706.991 193.528 706.447 193.136 705.983 192.608C705.535 192.08 705.311 191.368 705.311 190.472C705.311 189.736 705.519 189.064 705.935 188.456C706.367 187.848 706.975 187.368 707.759 187.016C708.559 186.664 709.495 186.488 710.567 186.488C712.151 186.488 713.415 186.888 714.359 187.688C715.303 188.472 715.823 189.536 715.919 190.88H712.703C712.655 190.352 712.431 189.936 712.031 189.632C711.647 189.312 711.127 189.152 710.471 189.152C709.863 189.152 709.391 189.264 709.055 189.488C708.735 189.712 708.575 190.024 708.575 190.424C708.575 190.872 708.799 191.216 709.247 191.456C709.695 191.68 710.391 191.912 711.335 192.152C712.295 192.392 713.087 192.64 713.711 192.896C714.335 193.152 714.871 193.552 715.319 194.096C715.783 194.624 716.023 195.328 716.039 196.208C716.039 196.976 715.823 197.664 715.391 198.272C714.975 198.88 714.367 199.36 713.567 199.712C712.783 200.048 711.863 200.216 710.807 200.216ZM720.501 185.12C719.909 185.12 719.413 184.936 719.013 184.568C718.629 184.184 718.437 183.712 718.437 183.152C718.437 182.592 718.629 182.128 719.013 181.76C719.413 181.376 719.909 181.184 720.501 181.184C721.093 181.184 721.581 181.376 721.965 181.76C722.365 182.128 722.565 182.592 722.565 183.152C722.565 183.712 722.365 184.184 721.965 184.568C721.581 184.936 721.093 185.12 720.501 185.12ZM722.157 186.704V200H718.797V186.704H722.157ZM730.684 186.488C731.676 186.488 732.548 186.688 733.3 187.088C734.052 187.472 734.644 187.976 735.076 188.6V186.704H738.46V200.096C738.46 201.328 738.212 202.424 737.716 203.384C737.22 204.36 736.476 205.128 735.484 205.688C734.492 206.264 733.292 206.552 731.884 206.552C729.996 206.552 728.444 206.112 727.228 205.232C726.028 204.352 725.348 203.152 725.188 201.632H728.524C728.7 202.24 729.076 202.72 729.652 203.072C730.244 203.44 730.956 203.624 731.788 203.624C732.764 203.624 733.556 203.328 734.164 202.736C734.772 202.16 735.076 201.28 735.076 200.096V198.032C734.644 198.656 734.044 199.176 733.276 199.592C732.524 200.008 731.66 200.216 730.684 200.216C729.564 200.216 728.54 199.928 727.612 199.352C726.684 198.776 725.948 197.968 725.404 196.928C724.876 195.872 724.612 194.664 724.612 193.304C724.612 191.96 724.876 190.768 725.404 189.728C725.948 188.688 726.676 187.888 727.588 187.328C728.516 186.768 729.548 186.488 730.684 186.488ZM735.076 193.352C735.076 192.536 734.916 191.84 734.596 191.264C734.276 190.672 733.844 190.224 733.3 189.92C732.756 189.6 732.172 189.44 731.548 189.44C730.924 189.44 730.348 189.592 729.82 189.896C729.292 190.2 728.86 190.648 728.524 191.24C728.204 191.816 728.044 192.504 728.044 193.304C728.044 194.104 728.204 194.808 728.524 195.416C728.86 196.008 729.292 196.464 729.82 196.784C730.364 197.104 730.94 197.264 731.548 197.264C732.172 197.264 732.756 197.112 733.3 196.808C733.844 196.488 734.276 196.04 734.596 195.464C734.916 194.872 735.076 194.168 735.076 193.352ZM749.11 186.512C750.694 186.512 751.974 187.016 752.95 188.024C753.926 189.016 754.414 190.408 754.414 192.2V200H751.054V192.656C751.054 191.6 750.79 190.792 750.262 190.232C749.734 189.656 749.014 189.368 748.102 189.368C747.174 189.368 746.438 189.656 745.894 190.232C745.366 190.792 745.102 191.6 745.102 192.656V200H741.742V186.704H745.102V188.36C745.55 187.784 746.118 187.336 746.806 187.016C747.51 186.68 748.278 186.512 749.11 186.512Z" fill="white"/>
<path d="M965.723 183.248C967.483 183.248 969.027 183.592 970.355 184.28C971.699 184.968 972.731 185.952 973.451 187.232C974.187 188.496 974.555 189.968 974.555 191.648C974.555 193.328 974.187 194.8 973.451 196.064C972.731 197.312 971.699 198.28 970.355 198.968C969.027 199.656 967.483 200 965.723 200H959.867V183.248H965.723ZM965.603 197.144C967.363 197.144 968.723 196.664 969.683 195.704C970.643 194.744 971.123 193.392 971.123 191.648C971.123 189.904 970.643 188.544 969.683 187.568C968.723 186.576 967.363 186.08 965.603 186.08H963.227V197.144H965.603ZM989.43 193.064C989.43 193.544 989.398 193.976 989.334 194.36H979.614C979.694 195.32 980.03 196.072 980.622 196.616C981.214 197.16 981.942 197.432 982.806 197.432C984.054 197.432 984.942 196.896 985.47 195.824H989.094C988.71 197.104 987.974 198.16 986.886 198.992C985.798 199.808 984.462 200.216 982.878 200.216C981.598 200.216 980.446 199.936 979.422 199.376C978.414 198.8 977.622 197.992 977.046 196.952C976.486 195.912 976.206 194.712 976.206 193.352C976.206 191.976 976.486 190.768 977.046 189.728C977.606 188.688 978.39 187.888 979.398 187.328C980.406 186.768 981.566 186.488 982.878 186.488C984.142 186.488 985.27 186.76 986.262 187.304C987.27 187.848 988.046 188.624 988.59 189.632C989.15 190.624 989.43 191.768 989.43 193.064ZM985.95 192.104C985.934 191.24 985.622 190.552 985.014 190.04C984.406 189.512 983.662 189.248 982.782 189.248C981.95 189.248 981.246 189.504 980.67 190.016C980.11 190.512 979.766 191.208 979.638 192.104H985.95ZM997.427 196.904L1000.79 186.704H1004.36L999.443 200H995.363L990.467 186.704H994.067L997.427 196.904ZM1018.61 193.064C1018.61 193.544 1018.58 193.976 1018.51 194.36H1008.79C1008.87 195.32 1009.21 196.072 1009.8 196.616C1010.39 197.16 1011.12 197.432 1011.99 197.432C1013.23 197.432 1014.12 196.896 1014.65 195.824H1018.27C1017.89 197.104 1017.15 198.16 1016.07 198.992C1014.98 199.808 1013.64 200.216 1012.06 200.216C1010.78 200.216 1009.63 199.936 1008.6 199.376C1007.59 198.8 1006.8 197.992 1006.23 196.952C1005.67 195.912 1005.39 194.712 1005.39 193.352C1005.39 191.976 1005.67 190.768 1006.23 189.728C1006.79 188.688 1007.57 187.888 1008.58 187.328C1009.59 186.768 1010.75 186.488 1012.06 186.488C1013.32 186.488 1014.45 186.76 1015.44 187.304C1016.45 187.848 1017.23 188.624 1017.77 189.632C1018.33 190.624 1018.61 191.768 1018.61 193.064ZM1015.13 192.104C1015.11 191.24 1014.8 190.552 1014.19 190.04C1013.59 189.512 1012.84 189.248 1011.96 189.248C1011.13 189.248 1010.43 189.504 1009.85 190.016C1009.29 190.512 1008.95 191.208 1008.82 192.104H1015.13ZM1024.42 182.24V200H1021.06V182.24H1024.42ZM1033.65 200.216C1032.37 200.216 1031.21 199.936 1030.19 199.376C1029.17 198.8 1028.36 197.992 1027.77 196.952C1027.19 195.912 1026.9 194.712 1026.9 193.352C1026.9 191.992 1027.2 190.792 1027.79 189.752C1028.4 188.712 1029.22 187.912 1030.26 187.352C1031.3 186.776 1032.46 186.488 1033.74 186.488C1035.02 186.488 1036.18 186.776 1037.22 187.352C1038.26 187.912 1039.08 188.712 1039.67 189.752C1040.28 190.792 1040.58 191.992 1040.58 193.352C1040.58 194.712 1040.27 195.912 1039.65 196.952C1039.04 197.992 1038.21 198.8 1037.15 199.376C1036.11 199.936 1034.94 200.216 1033.65 200.216ZM1033.65 197.288C1034.25 197.288 1034.82 197.144 1035.35 196.856C1035.89 196.552 1036.33 196.104 1036.65 195.512C1036.97 194.92 1037.13 194.2 1037.13 193.352C1037.13 192.088 1036.79 191.12 1036.12 190.448C1035.46 189.76 1034.65 189.416 1033.69 189.416C1032.73 189.416 1031.93 189.76 1031.27 190.448C1030.63 191.12 1030.31 192.088 1030.31 193.352C1030.31 194.616 1030.62 195.592 1031.25 196.28C1031.89 196.952 1032.69 197.288 1033.65 197.288ZM1046.41 188.624C1046.84 188.016 1047.43 187.512 1048.18 187.112C1048.95 186.696 1049.82 186.488 1050.8 186.488C1051.93 186.488 1052.96 186.768 1053.87 187.328C1054.8 187.888 1055.53 188.688 1056.05 189.728C1056.6 190.752 1056.87 191.944 1056.87 193.304C1056.87 194.664 1056.6 195.872 1056.05 196.928C1055.53 197.968 1054.8 198.776 1053.87 199.352C1052.96 199.928 1051.93 200.216 1050.8 200.216C1049.82 200.216 1048.96 200.016 1048.21 199.616C1047.47 199.216 1046.87 198.712 1046.41 198.104V206.336H1043.05V186.704H1046.41V188.624ZM1053.44 193.304C1053.44 192.504 1053.27 191.816 1052.93 191.24C1052.61 190.648 1052.18 190.2 1051.64 189.896C1051.11 189.592 1050.53 189.44 1049.91 189.44C1049.3 189.44 1048.73 189.6 1048.18 189.92C1047.65 190.224 1047.22 190.672 1046.89 191.264C1046.57 191.856 1046.41 192.552 1046.41 193.352C1046.41 194.152 1046.57 194.848 1046.89 195.44C1047.22 196.032 1047.65 196.488 1048.18 196.808C1048.73 197.112 1049.3 197.264 1049.91 197.264C1050.53 197.264 1051.11 197.104 1051.64 196.784C1052.18 196.464 1052.61 196.008 1052.93 195.416C1053.27 194.824 1053.44 194.12 1053.44 193.304ZM1075.82 186.512C1077.46 186.512 1078.77 187.016 1079.76 188.024C1080.77 189.016 1081.27 190.408 1081.27 192.2V200H1077.91V192.656C1077.91 191.616 1077.65 190.824 1077.12 190.28C1076.59 189.72 1075.87 189.44 1074.96 189.44C1074.05 189.44 1073.32 189.72 1072.78 190.28C1072.25 190.824 1071.98 191.616 1071.98 192.656V200H1068.62V192.656C1068.62 191.616 1068.36 190.824 1067.83 190.28C1067.3 189.72 1066.58 189.44 1065.67 189.44C1064.74 189.44 1064.01 189.72 1063.46 190.28C1062.94 190.824 1062.67 191.616 1062.67 192.656V200H1059.31V186.704H1062.67V188.312C1063.1 187.752 1063.66 187.312 1064.33 186.992C1065.02 186.672 1065.77 186.512 1066.58 186.512C1067.62 186.512 1068.55 186.736 1069.37 187.184C1070.18 187.616 1070.82 188.24 1071.26 189.056C1071.7 188.288 1072.32 187.672 1073.14 187.208C1073.97 186.744 1074.86 186.512 1075.82 186.512ZM1096.82 193.064C1096.82 193.544 1096.79 193.976 1096.72 194.36H1087C1087.08 195.32 1087.42 196.072 1088.01 196.616C1088.6 197.16 1089.33 197.432 1090.2 197.432C1091.44 197.432 1092.33 196.896 1092.86 195.824H1096.48C1096.1 197.104 1095.36 198.16 1094.28 198.992C1093.19 199.808 1091.85 200.216 1090.27 200.216C1088.99 200.216 1087.84 199.936 1086.81 199.376C1085.8 198.8 1085.01 197.992 1084.44 196.952C1083.88 195.912 1083.6 194.712 1083.6 193.352C1083.6 191.976 1083.88 190.768 1084.44 189.728C1085 188.688 1085.78 187.888 1086.79 187.328C1087.8 186.768 1088.96 186.488 1090.27 186.488C1091.53 186.488 1092.66 186.76 1093.65 187.304C1094.66 187.848 1095.44 188.624 1095.98 189.632C1096.54 190.624 1096.82 191.768 1096.82 193.064ZM1093.34 192.104C1093.32 191.24 1093.01 190.552 1092.4 190.04C1091.8 189.512 1091.05 189.248 1090.17 189.248C1089.34 189.248 1088.64 189.504 1088.06 190.016C1087.5 190.512 1087.16 191.208 1087.03 192.104H1093.34ZM1106.64 186.512C1108.23 186.512 1109.51 187.016 1110.48 188.024C1111.46 189.016 1111.95 190.408 1111.95 192.2V200H1108.59V192.656C1108.59 191.6 1108.32 190.792 1107.79 190.232C1107.27 189.656 1106.55 189.368 1105.63 189.368C1104.71 189.368 1103.97 189.656 1103.43 190.232C1102.9 190.792 1102.63 191.6 1102.63 192.656V200H1099.27V186.704H1102.63V188.36C1103.08 187.784 1103.65 187.336 1104.34 187.016C1105.04 186.68 1105.81 186.512 1106.64 186.512ZM1119.05 189.464V195.896C1119.05 196.344 1119.16 196.672 1119.36 196.88C1119.59 197.072 1119.96 197.168 1120.47 197.168H1122.03V200H1119.92C1117.08 200 1115.67 198.624 1115.67 195.872V189.464H1114.08V186.704H1115.67V183.416H1119.05V186.704H1122.03V189.464H1119.05Z" fill="white"/>
<circle cx="12" cy="192" r="12" fill="url(#paint5_linear_1248_556)"/>
<circle cx="1229" cy="192" r="12" fill="url(#paint6_linear_1248_556)"/>
<circle cx="201" cy="192" r="12" fill="url(#paint7_linear_1248_556)"/>
<circle cx="1418" cy="192" r="12" fill="url(#paint8_linear_1248_556)"/>
<line x1="24" y1="191" x2="189" y2="191" stroke="#FFCF2A" stroke-width="2" stroke-dasharray="11 11"/>
<line x1="1241" y1="191" x2="1406" y2="191" stroke="#FFCF2A" stroke-width="2" stroke-dasharray="11 11"/>
<path d="M6.886 150.644C8.49933 150.644 9.91467 150.959 11.132 151.59C12.364 152.221 13.31 153.123 13.97 154.296C14.6447 155.455 14.982 156.804 14.982 158.344C14.982 159.884 14.6447 161.233 13.97 162.392C13.31 163.536 12.364 164.423 11.132 165.054C9.91467 165.685 8.49933 166 6.886 166H1.518V150.644H6.886ZM6.776 163.382C8.38933 163.382 9.636 162.942 10.516 162.062C11.396 161.182 11.836 159.943 11.836 158.344C11.836 156.745 11.396 155.499 10.516 154.604C9.636 153.695 8.38933 153.24 6.776 153.24H4.598V163.382H6.776ZM18.8495 152.36C18.3069 152.36 17.8522 152.191 17.4855 151.854C17.1335 151.502 16.9575 151.069 16.9575 150.556C16.9575 150.043 17.1335 149.617 17.4855 149.28C17.8522 148.928 18.3069 148.752 18.8495 148.752C19.3922 148.752 19.8395 148.928 20.1915 149.28C20.5582 149.617 20.7415 150.043 20.7415 150.556C20.7415 151.069 20.5582 151.502 20.1915 151.854C19.8395 152.191 19.3922 152.36 18.8495 152.36ZM20.3675 153.812V166H17.2875V153.812H20.3675ZM28.0746 166.198C27.0772 166.198 26.1826 166.022 25.3906 165.67C24.5986 165.303 23.9679 164.812 23.4986 164.196C23.0439 163.58 22.7946 162.898 22.7506 162.15H25.8526C25.9112 162.619 26.1386 163.008 26.5346 163.316C26.9452 163.624 27.4512 163.778 28.0526 163.778C28.6392 163.778 29.0939 163.661 29.4166 163.426C29.7539 163.191 29.9226 162.891 29.9226 162.524C29.9226 162.128 29.7172 161.835 29.3066 161.644C28.9106 161.439 28.2726 161.219 27.3926 160.984C26.4832 160.764 25.7352 160.537 25.1486 160.302C24.5766 160.067 24.0779 159.708 23.6526 159.224C23.2419 158.74 23.0366 158.087 23.0366 157.266C23.0366 156.591 23.2272 155.975 23.6086 155.418C24.0046 154.861 24.5619 154.421 25.2806 154.098C26.0139 153.775 26.8719 153.614 27.8546 153.614C29.3066 153.614 30.4652 153.981 31.3306 154.714C32.1959 155.433 32.6726 156.408 32.7606 157.64H29.8126C29.7686 157.156 29.5632 156.775 29.1966 156.496C28.8446 156.203 28.3679 156.056 27.7666 156.056C27.2092 156.056 26.7766 156.159 26.4686 156.364C26.1752 156.569 26.0286 156.855 26.0286 157.222C26.0286 157.633 26.2339 157.948 26.6446 158.168C27.0552 158.373 27.6932 158.586 28.5586 158.806C29.4386 159.026 30.1646 159.253 30.7366 159.488C31.3086 159.723 31.7999 160.089 32.2106 160.588C32.6359 161.072 32.8559 161.717 32.8706 162.524C32.8706 163.228 32.6726 163.859 32.2766 164.416C31.8952 164.973 31.3379 165.413 30.6046 165.736C29.8859 166.044 29.0426 166.198 28.0746 166.198ZM34.6069 159.906C34.6069 158.645 34.8635 157.545 35.3769 156.606C35.8902 155.653 36.6015 154.919 37.5109 154.406C38.4202 153.878 39.4615 153.614 40.6349 153.614C42.1455 153.614 43.3922 153.995 44.3749 154.758C45.3722 155.506 46.0395 156.562 46.3769 157.926H43.0549C42.8789 157.398 42.5782 156.987 42.1529 156.694C41.7422 156.386 41.2289 156.232 40.6129 156.232C39.7329 156.232 39.0362 156.555 38.5229 157.2C38.0095 157.831 37.7529 158.733 37.7529 159.906C37.7529 161.065 38.0095 161.967 38.5229 162.612C39.0362 163.243 39.7329 163.558 40.6129 163.558C41.8595 163.558 42.6735 163.001 43.0549 161.886H46.3769C46.0395 163.206 45.3722 164.255 44.3749 165.032C43.3775 165.809 42.1309 166.198 40.6349 166.198C39.4615 166.198 38.4202 165.941 37.5109 165.428C36.6015 164.9 35.8902 164.167 35.3769 163.228C34.8635 162.275 34.6069 161.167 34.6069 159.906ZM54.0452 166.198C52.8719 166.198 51.8159 165.941 50.8772 165.428C49.9386 164.9 49.1979 164.159 48.6552 163.206C48.1272 162.253 47.8632 161.153 47.8632 159.906C47.8632 158.659 48.1346 157.559 48.6772 156.606C49.2346 155.653 49.9899 154.919 50.9432 154.406C51.8966 153.878 52.9599 153.614 54.1332 153.614C55.3066 153.614 56.3699 153.878 57.3232 154.406C58.2766 154.919 59.0246 155.653 59.5672 156.606C60.1246 157.559 60.4032 158.659 60.4032 159.906C60.4032 161.153 60.1172 162.253 59.5452 163.206C58.9879 164.159 58.2252 164.9 57.2572 165.428C56.3039 165.941 55.2332 166.198 54.0452 166.198ZM54.0452 163.514C54.6026 163.514 55.1232 163.382 55.6072 163.118C56.1059 162.839 56.5019 162.429 56.7952 161.886C57.0886 161.343 57.2352 160.683 57.2352 159.906C57.2352 158.747 56.9272 157.86 56.3112 157.244C55.7099 156.613 54.9692 156.298 54.0892 156.298C53.2092 156.298 52.4686 156.613 51.8672 157.244C51.2806 157.86 50.9872 158.747 50.9872 159.906C50.9872 161.065 51.2732 161.959 51.8452 162.59C52.4319 163.206 53.1652 163.514 54.0452 163.514ZM67.7445 163.162L70.8245 153.812H74.1025L69.5925 166H65.8525L61.3645 153.812H64.6645L67.7445 163.162ZM87.1625 159.642C87.1625 160.082 87.1331 160.478 87.0745 160.83H78.1645C78.2378 161.71 78.5458 162.399 79.0885 162.898C79.6311 163.397 80.2985 163.646 81.0905 163.646C82.2345 163.646 83.0485 163.155 83.5325 162.172H86.8545C86.5025 163.345 85.8278 164.313 84.8305 165.076C83.8331 165.824 82.6085 166.198 81.1565 166.198C79.9831 166.198 78.9271 165.941 77.9885 165.428C77.0645 164.9 76.3385 164.159 75.8105 163.206C75.2971 162.253 75.0405 161.153 75.0405 159.906C75.0405 158.645 75.2971 157.537 75.8105 156.584C76.3238 155.631 77.0425 154.897 77.9665 154.384C78.8905 153.871 79.9538 153.614 81.1565 153.614C82.3151 153.614 83.3491 153.863 84.2585 154.362C85.1825 154.861 85.8938 155.572 86.3925 156.496C86.9058 157.405 87.1625 158.454 87.1625 159.642ZM83.9725 158.762C83.9578 157.97 83.6718 157.339 83.1145 156.87C82.5571 156.386 81.8751 156.144 81.0685 156.144C80.3058 156.144 79.6605 156.379 79.1325 156.848C78.6191 157.303 78.3038 157.941 78.1865 158.762H83.9725ZM92.4906 155.704C92.8866 155.059 93.3999 154.553 94.0306 154.186C94.6759 153.819 95.4092 153.636 96.2306 153.636V156.87H95.4166C94.4486 156.87 93.7152 157.097 93.2166 157.552C92.7326 158.007 92.4906 158.799 92.4906 159.928V166H89.4106V153.812H92.4906V155.704ZM109.965 153.812L102.419 171.764H99.1411L101.781 165.692L96.8971 153.812H100.351L103.497 162.326L106.687 153.812H109.965Z" fill="black"/>
<path d="M1338.85 150.644V166H1335.77V159.466H1329.2V166H1326.12V150.644H1329.2V156.958H1335.77V150.644H1338.85ZM1341.09 159.862C1341.09 158.63 1341.34 157.537 1341.82 156.584C1342.32 155.631 1342.99 154.897 1343.82 154.384C1344.67 153.871 1345.62 153.614 1346.66 153.614C1347.57 153.614 1348.36 153.797 1349.04 154.164C1349.72 154.531 1350.27 154.993 1350.69 155.55V153.812H1353.79V166H1350.69V164.218C1350.29 164.79 1349.74 165.267 1349.04 165.648C1348.35 166.015 1347.55 166.198 1346.64 166.198C1345.61 166.198 1344.67 165.934 1343.82 165.406C1342.99 164.878 1342.32 164.137 1341.82 163.184C1341.34 162.216 1341.09 161.109 1341.09 159.862ZM1350.69 159.906C1350.69 159.158 1350.54 158.52 1350.25 157.992C1349.95 157.449 1349.56 157.039 1349.06 156.76C1348.56 156.467 1348.02 156.32 1347.45 156.32C1346.88 156.32 1346.35 156.459 1345.87 156.738C1345.38 157.017 1344.99 157.427 1344.68 157.97C1344.39 158.498 1344.24 159.129 1344.24 159.862C1344.24 160.595 1344.39 161.241 1344.68 161.798C1344.99 162.341 1345.38 162.759 1345.87 163.052C1346.37 163.345 1346.89 163.492 1347.45 163.492C1348.02 163.492 1348.56 163.353 1349.06 163.074C1349.56 162.781 1349.95 162.37 1350.25 161.842C1350.54 161.299 1350.69 160.654 1350.69 159.906ZM1363.55 153.636C1365 153.636 1366.17 154.098 1367.07 155.022C1367.96 155.931 1368.41 157.207 1368.41 158.85V166H1365.33V159.268C1365.33 158.3 1365.09 157.559 1364.61 157.046C1364.12 156.518 1363.46 156.254 1362.63 156.254C1361.77 156.254 1361.1 156.518 1360.6 157.046C1360.12 157.559 1359.88 158.3 1359.88 159.268V166H1356.8V153.812H1359.88V155.33C1360.29 154.802 1360.81 154.391 1361.44 154.098C1362.08 153.79 1362.79 153.636 1363.55 153.636ZM1370.55 159.862C1370.55 158.63 1370.79 157.537 1371.27 156.584C1371.77 155.631 1372.45 154.897 1373.3 154.384C1374.15 153.871 1375.09 153.614 1376.14 153.614C1376.93 153.614 1377.68 153.79 1378.4 154.142C1379.12 154.479 1379.69 154.934 1380.12 155.506V149.72H1383.24V166H1380.12V164.196C1379.74 164.797 1379.2 165.281 1378.51 165.648C1377.82 166.015 1377.02 166.198 1376.11 166.198C1375.09 166.198 1374.15 165.934 1373.3 165.406C1372.45 164.878 1371.77 164.137 1371.27 163.184C1370.79 162.216 1370.55 161.109 1370.55 159.862ZM1380.14 159.906C1380.14 159.158 1379.99 158.52 1379.7 157.992C1379.41 157.449 1379.01 157.039 1378.51 156.76C1378.01 156.467 1377.48 156.32 1376.91 156.32C1376.33 156.32 1375.81 156.459 1375.32 156.738C1374.84 157.017 1374.44 157.427 1374.13 157.97C1373.84 158.498 1373.69 159.129 1373.69 159.862C1373.69 160.595 1373.84 161.241 1374.13 161.798C1374.44 162.341 1374.84 162.759 1375.32 163.052C1375.82 163.345 1376.35 163.492 1376.91 163.492C1377.48 163.492 1378.01 163.353 1378.51 163.074C1379.01 162.781 1379.41 162.37 1379.7 161.842C1379.99 161.299 1380.14 160.654 1380.14 159.906ZM1395.62 156.848V159.444H1386.29V156.848H1395.62ZM1406.2 166.154C1404.77 166.154 1403.45 165.817 1402.24 165.142C1401.04 164.467 1400.09 163.536 1399.38 162.348C1398.68 161.145 1398.33 159.789 1398.33 158.278C1398.33 156.782 1398.68 155.44 1399.38 154.252C1400.09 153.049 1401.04 152.111 1402.24 151.436C1403.45 150.761 1404.77 150.424 1406.2 150.424C1407.66 150.424 1408.98 150.761 1410.16 151.436C1411.37 152.111 1412.31 153.049 1413 154.252C1413.71 155.44 1414.06 156.782 1414.06 158.278C1414.06 159.789 1413.71 161.145 1413 162.348C1412.31 163.536 1411.37 164.467 1410.16 165.142C1408.96 165.817 1407.64 166.154 1406.2 166.154ZM1406.2 163.404C1407.13 163.404 1407.94 163.199 1408.65 162.788C1409.35 162.363 1409.9 161.761 1410.3 160.984C1410.69 160.207 1410.89 159.305 1410.89 158.278C1410.89 157.251 1410.69 156.357 1410.3 155.594C1409.9 154.817 1409.35 154.223 1408.65 153.812C1407.94 153.401 1407.13 153.196 1406.2 153.196C1405.28 153.196 1404.46 153.401 1403.74 153.812C1403.04 154.223 1402.49 154.817 1402.09 155.594C1401.69 156.357 1401.5 157.251 1401.5 158.278C1401.5 159.305 1401.69 160.207 1402.09 160.984C1402.49 161.761 1403.04 162.363 1403.74 162.788C1404.46 163.199 1405.28 163.404 1406.2 163.404ZM1421.94 156.342H1419.8V166H1416.68V156.342H1415.29V153.812H1416.68V153.196C1416.68 151.7 1417.11 150.6 1417.96 149.896C1418.81 149.192 1420.09 148.862 1421.81 148.906V151.502C1421.06 151.487 1420.54 151.612 1420.24 151.876C1419.95 152.14 1419.8 152.617 1419.8 153.306V153.812H1421.94V156.342ZM1429.52 156.342H1427.39V166H1424.26V156.342H1422.88V153.812H1424.26V153.196C1424.26 151.7 1424.69 150.6 1425.54 149.896C1426.39 149.192 1427.67 148.862 1429.39 148.906V151.502C1428.64 151.487 1428.12 151.612 1427.83 151.876C1427.53 152.14 1427.39 152.617 1427.39 153.306V153.812H1429.52V156.342Z" fill="black"/>
<path d="M905.334 175.869C905.628 179.422 905.827 183.002 905.926 186.608L904.926 186.635C904.975 188.417 905 190.206 905 192C905 193.794 904.975 195.583 904.926 197.365L905.926 197.393C905.827 200.998 905.628 204.578 905.334 208.131L904.337 208.048C904.041 211.622 903.646 215.167 903.156 218.681L904.147 218.82C903.649 222.387 903.054 225.923 902.364 229.424L901.383 229.231C900.691 232.744 899.902 236.223 899.021 239.664L899.99 239.912C899.096 243.399 898.107 246.848 897.026 250.256L896.073 249.953C894.991 253.365 893.816 256.734 892.551 260.059L893.485 260.415C892.207 263.776 890.837 267.091 889.378 270.358L888.465 269.95C887.008 273.214 885.462 276.43 883.831 279.594L884.719 280.053C883.073 283.245 881.34 286.385 879.524 289.47L878.662 288.963C876.85 292.041 874.953 295.063 872.977 298.027L873.809 298.582C871.817 301.569 869.744 304.496 867.593 307.361L866.793 306.761C864.65 309.616 862.428 312.409 860.132 315.136L860.897 315.78C858.586 318.525 856.2 321.203 853.742 323.813L853.014 323.127C850.567 325.724 848.049 328.252 845.462 330.708L846.15 331.434C843.55 333.902 840.881 336.299 838.146 338.62L837.499 337.857C834.78 340.164 831.996 342.397 829.149 344.551L829.753 345.348C826.895 347.51 823.975 349.594 820.996 351.596L820.438 350.766C817.481 352.754 814.465 354.66 811.394 356.483L811.905 357.343C808.825 359.17 805.691 360.914 802.504 362.57L802.043 361.683C798.884 363.324 795.673 364.88 792.413 366.347L792.823 367.259C789.561 368.727 786.249 370.106 782.892 371.393L782.534 370.46C779.212 371.733 775.846 372.917 772.438 374.006L772.742 374.959C769.336 376.048 765.89 377.044 762.404 377.944L762.154 376.975C758.715 377.864 755.237 378.658 751.726 379.355L751.92 380.336C748.42 381.031 744.885 381.631 741.318 382.132L741.179 381.142C737.665 381.636 734.12 382.033 730.547 382.332L730.631 383.328C727.078 383.626 723.498 383.825 719.892 383.925L719.865 382.926C718.082 382.975 716.294 383 714.5 383C712.706 383 710.918 382.975 709.135 382.926L709.108 383.925C705.502 383.825 701.922 383.626 698.369 383.328L698.453 382.332C694.88 382.033 691.335 381.636 687.821 381.142L687.682 382.132C684.116 381.631 680.58 381.031 677.08 380.336L677.274 379.355C673.763 378.658 670.285 377.864 666.846 376.975L666.596 377.944C663.11 377.044 659.664 376.048 656.258 374.959L656.563 374.006C653.154 372.917 649.788 371.733 646.466 370.46L646.108 371.393C642.751 370.106 639.44 368.727 636.177 367.259L636.587 366.347C633.327 364.88 630.116 363.325 626.957 361.683L626.496 362.57C623.309 360.914 620.175 359.17 617.096 357.343L617.606 356.483C614.535 354.661 611.519 352.754 608.562 350.766L608.004 351.596C605.025 349.594 602.105 347.51 599.248 345.348L599.851 344.551C597.004 342.397 594.22 340.164 591.501 337.857L590.854 338.62C588.119 336.299 585.45 333.902 582.85 331.434L583.538 330.708C580.951 328.252 578.433 325.724 575.986 323.127L575.258 323.813C572.8 321.203 570.414 318.525 568.103 315.78L568.868 315.136C566.572 312.409 564.35 309.616 562.207 306.761L561.407 307.361C559.256 304.496 557.183 301.569 555.191 298.582L556.023 298.027C554.047 295.063 552.15 292.041 550.338 288.963L549.476 289.47C547.66 286.385 545.927 283.245 544.281 280.053L545.169 279.594C543.538 276.43 541.992 273.214 540.535 269.95L539.622 270.358C538.163 267.091 536.793 263.776 535.515 260.415L536.449 260.059C535.184 256.734 534.009 253.365 532.927 249.953L531.974 250.256C530.893 246.848 529.904 243.399 529.011 239.912L529.979 239.664C529.098 236.223 528.309 232.744 527.617 229.231L526.636 229.424C525.946 225.923 525.351 222.387 524.853 218.819L525.844 218.681C525.354 215.167 524.959 211.622 524.663 208.048L523.666 208.131C523.372 204.578 523.173 200.998 523.074 197.392L524.074 197.365C524.025 195.583 524 193.794 524 192C524 190.206 524.025 188.417 524.074 186.635L523.074 186.608C523.173 183.002 523.372 179.422 523.666 175.869L524.663 175.952C524.959 172.378 525.354 168.833 525.844 165.319L524.853 165.181C525.351 161.613 525.946 158.077 526.636 154.576L527.617 154.769C528.309 151.256 529.098 147.777 529.979 144.336L529.011 144.088C529.904 140.601 530.893 137.152 531.974 133.744L532.927 134.047C534.009 130.635 535.184 127.266 536.449 123.941L535.515 123.585C536.793 120.224 538.163 116.909 539.622 113.642L540.535 114.05C541.992 110.786 543.538 107.57 545.169 104.406L544.281 103.947C545.927 100.755 547.66 97.6145 549.476 94.5296L550.338 95.037C552.15 91.9591 554.047 88.9366 556.023 85.9726L555.191 85.4178C557.183 82.4312 559.256 79.5038 561.407 76.6387L562.207 77.2392C564.35 74.3841 566.572 71.5912 568.868 68.8637L568.103 68.2196C570.414 65.4753 572.8 62.7967 575.258 60.1873L575.986 60.873C578.433 58.276 580.951 55.7478 583.538 53.2916L582.85 52.5664C585.45 50.0976 588.119 47.7012 590.854 45.3804L591.501 46.1428C594.22 43.8356 597.004 41.6034 599.851 39.4495L599.247 38.652C602.105 36.4898 605.025 34.406 608.004 32.4038L608.562 33.2338C611.519 31.2462 614.535 29.3395 617.606 27.5168L617.096 26.6569C620.175 24.8295 623.309 23.0862 626.496 21.43L626.957 22.3174C630.116 20.6755 633.327 19.1197 636.587 17.6532L636.177 16.7412C639.439 15.2732 642.751 13.894 646.108 12.6068L646.466 13.5405C649.788 12.2666 653.154 11.0833 656.562 9.99363L656.258 9.04113C659.664 7.95228 663.11 6.95637 666.596 6.05636L666.846 7.0246C670.285 6.13644 673.763 5.34216 677.274 4.64467L677.08 3.66383C680.58 2.96855 684.115 2.36895 687.682 1.86784L687.821 2.85811C691.335 2.3644 694.88 1.96679 698.453 1.66803L698.369 0.67151C701.922 0.374431 705.502 0.174591 709.108 0.0746525L709.135 1.07427C710.918 1.02486 712.706 1 714.5 1C716.294 1 718.083 1.02487 719.865 1.07427L719.892 0.0746533C723.498 0.174593 727.078 0.374432 730.631 0.671511L730.547 1.66803C734.12 1.96679 737.665 2.3644 741.179 2.85811L741.318 1.86784C744.885 2.36895 748.42 2.96856 751.92 3.66383L751.726 4.64468C755.237 5.34216 758.715 6.13644 762.154 7.0246L762.404 6.05636C765.89 6.95636 769.336 7.95228 772.742 9.04113L772.438 9.99363C775.846 11.0833 779.212 12.2666 782.534 13.5405L782.892 12.6068C786.249 13.894 789.56 15.2732 792.823 16.7412L792.413 17.6532C795.673 19.1197 798.884 20.6755 802.043 22.3174L802.504 21.43C805.691 23.0862 808.825 24.8295 811.904 26.6569L811.394 27.5168C814.465 29.3395 817.481 31.2462 820.438 33.2337L820.996 32.4038C823.975 34.406 826.895 36.4898 829.752 38.652L829.149 39.4495C831.996 41.6034 834.78 43.8356 837.499 46.1428L838.146 45.3803C840.881 47.7012 843.55 50.0976 846.15 52.5663L845.462 53.2915C848.049 55.7478 850.567 58.276 853.014 60.873L853.742 60.1873C856.2 62.7967 858.586 65.4752 860.897 68.2196L860.132 68.8637C862.428 71.5912 864.65 74.384 866.793 77.2391L867.593 76.6387C869.744 79.5038 871.817 82.4312 873.809 85.4177L872.977 85.9726C874.953 88.9366 876.85 91.9591 878.662 95.037L879.524 94.5296C881.34 97.6145 883.073 100.755 884.719 103.947L883.831 104.406C885.462 107.57 887.008 110.786 888.465 114.05L889.379 113.642C890.837 116.909 892.207 120.224 893.485 123.585L892.551 123.941C893.816 127.266 894.991 130.635 896.073 134.047L897.026 133.744C898.107 137.152 899.096 140.601 899.99 144.088L899.021 144.336C899.902 147.777 900.691 151.256 901.383 154.769L902.364 154.576C903.054 158.077 903.649 161.613 904.147 165.18L903.156 165.319C903.646 168.833 904.041 172.378 904.337 175.952L905.334 175.869Z" stroke="url(#paint9_linear_1248_556)" stroke-width="2" stroke-dasharray="11 11"/>
<defs>
<linearGradient id="paint0_linear_1248_556" x1="390.5" y1="91" x2="390.5" y2="293" gradientUnits="userSpaceOnUse">
<stop stop-color="#A583D2"/>
<stop offset="1" stop-color="#6437A0"/>
</linearGradient>
<linearGradient id="paint1_linear_1248_556" x1="390.5" y1="0" x2="390.5" y2="384" gradientUnits="userSpaceOnUse">
<stop stop-color="#A583D2"/>
<stop offset="1" stop-color="#6437A0"/>
</linearGradient>
<linearGradient id="paint2_linear_1248_556" x1="1039.5" y1="0" x2="1039.5" y2="384" gradientUnits="userSpaceOnUse">
<stop stop-color="#A583D2"/>
<stop offset="1" stop-color="#6437A0"/>
</linearGradient>
<linearGradient id="paint3_linear_1248_556" x1="715" y1="91" x2="715" y2="293" gradientUnits="userSpaceOnUse">
<stop offset="0.135417" stop-color="#FFCF2A"/>
<stop offset="0.75" stop-color="#F9D044"/>
</linearGradient>
<linearGradient id="paint4_linear_1248_556" x1="1039.5" y1="91" x2="1039.5" y2="293" gradientUnits="userSpaceOnUse">
<stop stop-color="#A583D2"/>
<stop offset="1" stop-color="#6437A0"/>
</linearGradient>
<linearGradient id="paint5_linear_1248_556" x1="12" y1="180" x2="12" y2="204" gradientUnits="userSpaceOnUse">
<stop offset="0.135417" stop-color="#FFCF2A"/>
<stop offset="0.75" stop-color="#F9D044"/>
</linearGradient>
<linearGradient id="paint6_linear_1248_556" x1="1229" y1="180" x2="1229" y2="204" gradientUnits="userSpaceOnUse">
<stop stop-color="#A583D2"/>
<stop offset="1" stop-color="#6437A0"/>
</linearGradient>
<linearGradient id="paint7_linear_1248_556" x1="201" y1="180" x2="201" y2="204" gradientUnits="userSpaceOnUse">
<stop stop-color="#A583D2"/>
<stop offset="1" stop-color="#6437A0"/>
</linearGradient>
<linearGradient id="paint8_linear_1248_556" x1="1418" y1="180" x2="1418" y2="204" gradientUnits="userSpaceOnUse">
<stop offset="0.135417" stop-color="#FFCF2A"/>
<stop offset="0.75" stop-color="#F9D044"/>
</linearGradient>
<linearGradient id="paint9_linear_1248_556" x1="714.5" y1="0" x2="714.5" y2="384" gradientUnits="userSpaceOnUse">
<stop offset="0.135417" stop-color="#FFCF2A"/>
<stop offset="0.75" stop-color="#F9D044"/>
</linearGradient>
</defs>
</svg>
