<svg width="69" height="79" viewBox="0 0 69 79" fill="none" xmlns="http://www.w3.org/2000/svg">
<path d="M24.3483 66.7314C23.7547 65.4674 23.1638 64.2007 22.5724 62.9345L22.519 62.8199C22.1747 62.0825 21.8304 61.3451 21.4856 60.6085H6.56161L6.496 60.6077C6.46976 60.6072 6.44352 60.6068 6.41728 60.6068C6.36298 60.6068 6.30869 60.6072 6.25439 60.6081C6.17929 60.609 6.10418 60.6099 6.02907 60.6099H5.96528C5.71191 60.6081 5.32597 60.5965 4.89976 60.5127C4.44143 60.424 3.99215 60.28 3.56368 60.0838C3.3551 59.9879 3.14924 59.8791 2.95197 59.7596C2.56106 59.5225 2.19683 59.2411 1.87017 58.9223C1.70638 58.7627 1.55074 58.5929 1.40731 58.4168C1.11684 58.0605 0.870255 57.6731 0.67344 57.2647C0.434547 56.7805 0.265783 56.2535 0.172126 55.6989C0.110141 55.3319 0.0802792 54.9494 0.0843513 54.5624C0.0852561 54.471 0.0879708 54.3774 0.0929478 54.2846C0.09521 53.1919 0.0965674 52.0982 0.0970198 51.0041C0.0979247 49.1342 0.0965674 47.263 0.09521 45.3909L0.0943051 44.2959C0.0934002 43.1763 0.0929478 42.0568 0.0929478 40.9373L0.102449 40.9288V12.786L0.103807 12.7089C0.130049 11.8506 0.365774 10.9857 0.784742 10.2072C0.824105 10.1341 0.86573 10.0601 0.909618 9.98699C0.99513 9.84343 1.08743 9.70165 1.18425 9.56611C1.52631 9.08771 1.93487 8.66193 2.39908 8.2999C3.23837 7.64629 4.22471 7.23031 5.25313 7.09611C9.90158 6.44205 14.5487 5.78933 19.1958 5.13661L27.4294 3.98008C36.7413 2.67197 46.0536 1.36385 55.3686 0.0530559L55.3885 0.0503808C55.4926 0.0365595 55.5989 0.0254133 55.7043 0.0173881C55.803 0.00980865 55.8998 0.00490433 56.0025 0.00222924L56.0043 0.0668772L56.0767 0C56.0993 0 56.1527 0.000891695 56.1527 0.000891695C56.4658 0.000891695 56.7834 0.026305 57.097 0.0771317C58.8307 0.334832 60.0261 1.16634 60.4754 1.52658L64.0687 4.01352C64.1122 4.01085 64.1561 4.00862 64.1995 4.00728C64.242 4.00594 64.2841 4.0055 64.3262 4.0055C65.436 4.0055 66.5278 4.46249 67.3214 5.25877C68.0942 6.03455 68.5122 7.0435 68.4996 8.10284C68.4932 13.3777 68.4855 18.6534 68.4779 23.93L68.4675 31.266C68.462 35.1292 68.457 38.993 68.4525 42.8558C68.448 46.6896 68.4448 50.5235 68.4421 54.3564C68.5299 55.8134 68.0679 57.0895 67.1336 57.9678C66.8427 58.2531 66.5093 58.4917 66.1419 58.6785C65.5596 58.9741 64.8994 59.1306 64.2325 59.1306H64.2076C63.6195 59.127 63.0471 59.0057 62.5227 58.7783L62.1155 58.9183C60.9233 59.3276 59.9306 59.6691 58.9113 60.0267L58.9004 60.0084C58.49 60.1725 57.5874 60.4949 56.6083 60.6023C56.3866 60.6264 56.2169 60.6375 56.0577 60.6375C55.8903 60.6375 55.7301 60.6246 55.5776 60.6001C54.1809 60.6014 52.7847 60.6023 51.388 60.6023L42.6494 60.6001C39.9338 60.6001 37.7498 60.6019 35.7305 60.6063C33.8967 62.3585 32.0788 64.087 30.4898 65.5976L28.4918 67.4969L25.8278 69.7556L24.3478 66.7318L24.3483 66.7314Z" fill="white"/>
<path d="M5.60378 9.62221C22.3172 7.27081 39.0212 4.92878 55.7346 2.57737C56.6545 2.45477 57.6132 2.74724 58.3222 3.33264C59.0312 3.91804 59.4723 4.80572 59.5008 5.72194C59.4913 9.1407 59.5008 12.559 59.5008 15.9684C50.598 22.834 42.8928 31.1914 36.8169 40.5877C35.9255 39.766 35.0342 38.9256 34.2103 38.0379C35.6477 36.971 36.7404 35.46 37.2675 33.7693C37.5933 32.7965 37.6317 31.7389 37.4209 30.738C37.1716 29.5766 36.635 28.4999 36.0794 27.461C35.4853 26.3749 34.9772 25.2135 34.0669 24.3352C33.3479 23.5986 32.3611 23.0699 31.3069 23.0605C30.1953 23.0418 29.0356 23.4475 28.3167 24.3165C27.7226 25.0249 27.5023 25.9692 27.5023 26.8756C27.5023 27.782 27.7421 28.7076 28.1059 29.548C28.8918 31.5312 29.8691 33.4291 30.9907 35.2424C28.0964 36.8479 24.7903 37.4899 21.5413 37.934C15.2735 38.7838 8.86232 38.4913 2.69092 37.1787V12.7859C2.73888 11.2277 4.03243 9.82062 5.60423 9.62221H5.60378ZM30.7604 17.2244C30.3197 17.7059 29.936 18.2347 29.6198 18.8013C29.5048 19.0564 29.1596 19.1509 28.9393 18.9806C28.4027 18.6595 27.8851 18.3194 27.3485 17.9984C26.6295 18.9048 25.997 19.8963 25.4604 20.9258C26.3133 21.4546 27.1661 21.9927 28.0289 22.5219C28.4891 22.0119 28.8818 21.4452 29.227 20.8598C29.3325 20.652 29.6198 20.5482 29.8306 20.6806C30.3867 20.9922 30.9423 21.3039 31.5078 21.6155C31.8051 21.3226 32.0254 20.9637 32.2553 20.6146C32.658 19.9913 33.0507 19.3493 33.4054 18.6974C32.5236 18.1874 31.6517 17.6965 30.7604 17.2244Z" fill="#38BBD8"/>
<path d="M63.8237 6.64762C64.782 6.27934 65.9321 7.06315 65.9131 8.08324C65.8941 23.5332 65.8652 38.9921 65.8557 54.442C65.9036 55.0466 65.8077 55.7074 65.3286 56.1421C64.744 56.7368 63.7088 56.7181 63.1052 56.1421C63.9101 55.9156 64.5621 55.179 64.5621 54.3382V8.07344C64.5811 7.50676 64.2748 6.98735 63.8242 6.64762H63.8237Z" fill="#38BBD8"/>
<path d="M38.6563 44.3369C44.3105 35.6299 51.3638 27.8106 59.4906 21.2754C59.4906 32.1166 59.4811 42.9485 59.5001 53.7897C59.5386 55.027 59.069 56.2735 58.1776 57.1519C57.6795 57.6525 57.018 58.0208 56.2991 58.0489C49.0925 58.0583 41.8854 58.0395 34.6788 58.0583C32.0243 60.5987 29.3598 63.1293 26.6958 65.6604C25.5077 63.1293 24.3286 60.5893 23.1405 58.0583H6.56139C6.17817 58.0489 5.78499 58.0868 5.40176 58.011C4.36656 57.8126 3.45623 57.1046 3.00605 56.1599C2.72824 55.6025 2.64183 54.9699 2.68028 54.356C2.68979 49.889 2.68028 45.4127 2.68028 40.9364C9.51316 42.5419 16.6623 42.8914 23.6011 41.8428C27.013 41.3613 30.386 40.3225 33.3568 38.5943C35.005 40.6154 36.8741 42.4474 38.6563 44.336V44.3369Z" fill="#38BBD8"/>
<path d="M30.9422 27.7446C31.9195 27.1307 33.1945 27.0362 34.2772 27.4236C34.6509 27.5462 35.0341 27.7352 35.226 28.0942C35.4943 28.5284 35.3888 29.0478 35.3124 29.52C34.8427 31.5883 33.4628 33.4296 31.6132 34.5157C31.115 33.8545 30.6359 33.184 30.1757 32.504C29.7061 31.7956 29.5912 30.9177 29.6486 30.0866C29.7156 29.1704 30.1468 28.2453 30.9422 27.7446Z" fill="url(#paint0_linear_3000_4935)"/>
<path d="M7.47974 17.6626C8.28375 17.7103 8.95608 16.6211 9.53431 16.153C9.90939 15.8494 10.3103 15.5756 10.7157 15.3126C11.117 15.0517 11.4902 14.9046 11.7242 14.4775C11.949 14.0673 11.6572 13.6687 11.2251 13.6206C10.3062 13.518 9.23796 14.486 8.57014 15.0272C7.91998 15.5538 6.74406 16.3402 6.95898 17.2725C7.01372 17.5102 7.249 17.6497 7.47974 17.6631V17.6626Z" fill="#A9DCF4"/>
<path d="M14.0527 13.8235C14.1065 13.7557 14.168 13.6924 14.2128 13.6189C14.383 13.3393 14.383 12.9675 14.2128 12.6875C14.168 12.6139 14.1065 12.5506 14.0527 12.4828L13.8581 12.3348L13.6283 12.2394C13.5002 12.1997 13.3726 12.1944 13.2446 12.2225C13.1577 12.2225 13.0767 12.2443 13.0016 12.2871C12.9202 12.3098 12.8496 12.3504 12.7894 12.4088C12.717 12.4512 12.6596 12.5078 12.617 12.5787C12.5573 12.638 12.5161 12.7075 12.4935 12.7878C12.4333 12.9006 12.4057 13.0223 12.4107 13.1529L12.4451 13.4049L12.5419 13.6313L12.6921 13.8231L12.8867 13.9711L13.1165 14.0665C13.2446 14.1062 13.3722 14.1115 13.5002 14.0834C13.5871 14.0834 13.6681 14.0616 13.7432 14.0188C13.8626 13.9804 13.9658 13.9153 14.0527 13.8226V13.8235Z" fill="#A9DCF4"/>
<g opacity="0.45">
<path opacity="0.45" d="M56.2987 58.0491C57.0177 58.0205 57.6787 57.6523 58.1773 57.152C59.0686 56.2737 59.5383 55.0271 59.4998 53.7899C59.4989 53.1866 59.4985 52.5834 59.4976 51.9797C55.7395 53.9397 52.0543 55.9647 48.4429 58.0508C51.0616 58.0517 53.6804 58.0522 56.2987 58.0486V58.0491Z" fill="#A9DCF4"/>
<path opacity="0.45" d="M59.4895 40.0752C47.0087 46.26 35.2672 53.1341 24.3162 60.5713C25.1075 62.2655 25.8979 63.9601 26.692 65.6517C26.7083 65.6406 26.7241 65.6299 26.7404 65.6192C29.3899 63.1023 32.0395 60.5851 34.6795 58.0589C35.9495 58.0558 37.22 58.0544 38.49 58.0531C45.2247 53.9455 52.2295 50.0506 59.4918 46.3915C59.4904 44.2858 59.4895 42.1805 59.4891 40.0752H59.4895Z" fill="#67C4DD"/>
<path opacity="0.45" d="M45.2106 35.4025C42.8597 38.2573 40.6685 41.2396 38.6569 44.3369C37.6113 43.2289 36.5372 42.1397 35.4943 41.0215C26.629 46.3686 18.2017 52.0647 10.2336 58.0583H19.6758C31.9448 49.3781 45.2428 41.405 59.4895 34.3142C59.4895 32.1946 59.4899 30.0751 59.4904 27.9551C54.622 30.3386 49.8614 32.8233 45.2106 35.4025Z" fill="#67C4DD"/>
<g opacity="0.45">
<path opacity="0.45" d="M23.6011 41.844C20.3344 42.3376 17.0216 42.5172 13.7164 42.4062C9.94706 45.039 6.26911 47.7354 2.68255 50.4903C2.68255 51.7793 2.68345 53.0691 2.68028 54.3567C2.64183 54.9707 2.72824 55.6033 3.00605 56.1606C3.13862 56.4384 3.3119 56.6952 3.5155 56.9253C10.3384 51.5925 17.5079 46.4755 25.0136 41.6108C24.544 41.6991 24.073 41.7776 23.6011 41.844Z" fill="#67C4DD"/>
<path opacity="0.45" d="M56.687 23.621C57.6177 23.1609 58.5525 22.7043 59.4908 22.2514C59.4908 21.9259 59.4908 21.6009 59.4908 21.2754C58.5407 22.0391 57.6068 22.8225 56.687 23.621Z" fill="#A9DCF4"/>
</g>
<path opacity="0.45" d="M2.67969 40.9375C2.67969 42.0115 2.68059 43.0851 2.6815 44.1592C3.81217 43.3094 4.95324 42.4663 6.1011 41.6281C4.95369 41.4315 3.81217 41.2037 2.67969 40.9375Z" fill="#67C4DD"/>
</g>
<g opacity="0.44">
<path opacity="0.52" d="M23.6014 43.7633C27.0133 43.2818 30.3863 42.243 33.3575 40.5149C35.0058 42.5359 36.8749 44.3679 38.6571 46.2565C44.3113 37.5495 51.3645 29.7302 59.491 23.1955C59.491 22.5557 59.491 21.9159 59.491 21.2756C51.3641 27.8104 44.3109 35.6297 38.6566 44.3371C36.874 42.4485 35.0054 40.6165 33.3571 38.5955C30.3863 40.3236 27.0129 41.3624 23.6009 41.8439C16.6626 42.8921 9.51351 42.5426 2.68018 40.9375C2.68018 41.5773 2.68063 42.2175 2.68108 42.8573C9.51396 44.4624 16.6626 44.8119 23.6009 43.7638L23.6014 43.7633Z" fill="#0C5577"/>
</g>
<g opacity="0.31">
<path opacity="0.31" d="M36.4955 58.5162L35.6617 56.7663L35.6694 57.0815L35.6617 56.7663L35.0613 55.7239L35.744 54.723L36.4114 53.7448L36.4394 49.9435L35.6056 48.1935L30.1327 48.3242L30.0635 52.4647L30.8974 54.2147L31.6018 54.8148L30.2508 56.5915L30.0816 66.6405L29.264 65.3939L22.7117 60.9078L28.4469 52.1625L28.1266 51.6743L26.3706 48.9978L19.3722 44.5835L12.9786 53.5968L12.2791 50.1869L10.2028 47.0218L10.5349 48.6407L10.2028 47.0218L0.929443 48.2421L6.9167 74.923L8.40525 74.7188L6.9167 74.923L6.92348 74.9332L8.33557 77.0862L8.99298 78.0885L16.9864 76.9922L16.9782 76.9405L15.5218 67.5799L15.682 67.694L26.4258 75.3568L31.3399 68.5594L31.2521 68.4257L31.2462 68.4167L36.7439 68.6187L36.4951 58.5171L36.4955 58.5162ZM35.5924 49.9631L35.5965 49.4218L35.5924 49.9631Z" fill="url(#paint1_linear_3000_4935)"/>
<path opacity="0.31" d="M60.3478 58.4824C60.8635 58.0758 61.6001 58.6095 61.6001 58.6095L65.1776 54.9745C65.1776 54.9745 64.0637 52.8741 61.3314 52.8562C60.7559 52.8522 60.1509 52.8915 59.5542 52.9993C59.5501 53.0002 59.5456 53.0007 59.5415 53.0016C59.4003 53.0274 59.2592 53.0569 59.1194 53.0912L59.1157 53.0921C59.0474 53.1086 58.9791 53.1264 58.9112 53.1451C58.9058 53.1465 58.9004 53.1483 58.8945 53.1496C58.7597 53.1871 58.6262 53.229 58.4941 53.2753C58.4882 53.2771 58.4828 53.2793 58.4769 53.2811C58.4122 53.3039 58.3479 53.3279 58.2841 53.3534C58.2783 53.3556 58.2728 53.3578 58.2669 53.36C58.1389 53.4113 58.0127 53.4666 57.8887 53.5272C57.8806 53.5312 57.8724 53.5353 57.8647 53.5393C57.8041 53.5691 57.7439 53.6004 57.6842 53.6329C57.6801 53.6351 57.6756 53.6378 57.6715 53.64C57.6507 53.6516 57.6299 53.6632 57.6091 53.6748C55.3301 54.052 53.1362 55.4127 53.1339 59.2582C53.1317 62.7081 54.7211 63.1705 55.2269 63.7438L53.423 64.3529L50.4043 68.6125C50.4043 68.6125 53.4877 71.3701 57.3222 69.3209L57.3245 69.3196C57.9747 69.2233 58.6669 69.0084 59.3849 68.6245C63.2195 66.5754 63.0896 62.0826 60.8577 59.4954C60.5762 59.1092 60.4129 58.7597 60.3464 58.4824H60.3478Z" fill="url(#paint2_linear_3000_4935)"/>
<path opacity="0.31" d="M53.2244 58.0883C53.2574 57.8288 53.2823 57.5631 53.2977 57.2893C53.6601 50.7755 48.4958 48.2689 43.8727 48.1882C39.2496 48.1075 37.0896 48.4383 37.0896 48.4383L37.0996 49.1914L37.2362 59.7433L37.3244 66.5567H37.3312L37.3127 69.2661C37.3127 69.2661 42.2909 69.2331 44.8482 69.0552C47.4054 68.8769 52.9235 66.5121 53.2859 59.9987C53.3239 59.3184 53.3004 58.6826 53.2248 58.0883H53.2244ZM42.5778 60.684L42.5004 56.4204C45.2785 56.1225 46.8978 56.9875 47.4303 58.556C46.5498 60.9123 42.5778 60.684 42.5778 60.684Z" fill="url(#paint3_linear_3000_4935)"/>
<path opacity="0.31" d="M57.6764 50.7871L58.6546 49.0866L53.5415 47.9319L53.6862 48.5766L53.5415 47.9319L52.5637 49.6328L53.7003 54.6954L57.6764 50.7871Z" fill="url(#paint4_linear_3000_4935)"/>
</g>
<path d="M12.1379 62.1167C14.3001 61.2099 15.077 58.9535 14.9811 56.7898L13.1894 59.2352L11.4637 51.0998L9.31824 47.9343L10.0268 51.2737L5.94342 51.7682C5.80181 54.7888 6.38139 57.8629 7.72471 60.6887C8.5812 62.4306 10.6036 62.6584 12.1379 62.1172V62.1167Z" fill="url(#paint5_linear_3000_4935)"/>
<path d="M26.0204 49.9131L25.2531 51.046L21.2408 48.2461L14.9811 56.7899C15.0771 58.9531 14.3002 61.21 12.1379 62.1169C10.6037 62.6581 8.58125 62.4303 7.72477 60.6884C6.38144 57.8626 5.80141 54.7889 5.94347 51.7678L3.2229 52.0973L5.71318 65.9043C10.7566 63.4384 16.3312 61.7232 21.8873 62.3487L28.1659 53.0786L26.0204 49.9131Z" fill="url(#paint6_linear_3000_4935)"/>
<path d="M5.71212 65.9039L7.46627 75.6309L5.92839 75.8347L8.0739 79.0002L16.3311 77.9052L14.8167 68.4929L14.9819 68.607C13.7974 66.9485 12.6626 65.2596 11.57 63.5342C9.56201 64.1633 7.59974 64.9814 5.71167 65.9043L5.71212 65.9039Z" fill="#8F2D16"/>
<path d="M26.0824 76.2721L14.9825 68.6071C13.798 66.9485 12.6632 65.2596 11.5706 63.5342C14.9268 62.4824 18.4102 61.9572 21.8864 62.3487L21.4276 63.0264L28.141 67.4764L29.0115 66.3105L31.1571 69.476" fill="#8F2D16"/>
<path d="M23.936 73.1067L23.7442 68.164L20.9263 62.2659C17.7841 62.0617 14.6459 62.5744 11.6113 63.5214L12.8103 65.4457C13.5161 66.5122 14.2378 67.5666 14.9812 68.6072L25.9472 76.1799L23.9356 73.1067H23.936Z" fill="url(#paint7_linear_3000_4935)"/>
<path d="M8.0739 79.0004L16.3311 77.9054L16.3229 77.8537L14.1856 74.7399L11.7781 71.8793L8.77927 64.7708C8.77927 64.7708 8.43089 64.8006 7.9531 64.8778C7.1957 65.2006 6.4478 65.5439 5.71167 65.9041L7.46581 75.6312L5.92794 75.8349L8.07345 79.0004H8.0739Z" fill="#8F2D16"/>
<path d="M19.0945 45.0806L11.0432 56.0698L9.31756 47.9344L1.07666 48.9318L5.92872 75.8347L14.1855 74.7397L12.6711 65.3274L23.9362 73.1065L29.0113 66.31L19.2818 59.8604L26.0197 49.9131L19.0945 45.0806Z" fill="#F5A021"/>
<path d="M33.8052 54.9746C34.1572 55.3669 34.9942 55.6434 35.7028 55.6402L36.3918 54.662L36.4203 50.8608L35.5584 49.1104L35.5453 50.8808L33.8373 50.92C33.3496 52.3668 32.9388 53.798 33.8056 54.975L33.8052 54.9746Z" fill="url(#paint8_linear_3000_4935)"/>
<path d="M36.48 59.434L35.6181 57.6836L35.6262 57.9988L34.9005 56.779L35.7027 55.6403C34.9946 55.6434 34.1576 55.367 33.8051 54.9747C32.9382 53.7976 33.349 52.3665 33.8368 50.9197L30.7669 50.9901L30.6959 55.1307L32.7812 56.8499L30.8904 59.2575L30.7465 67.6238L29.8552 67.5699L30.7208 69.1138L30.7171 69.3198L30.8388 69.3243L30.8407 69.3274L30.8456 69.3247L36.7388 69.5352L36.4795 59.4336L36.48 59.434Z" fill="#8F2D16"/>
<path d="M30.6964 55.1308L29.8345 53.3809L31.9198 55.1L31.4244 55.7309L30.6964 55.1308Z" fill="url(#paint9_linear_3000_4935)"/>
<path d="M29.9055 49.2401L29.8345 53.3807L31.9198 55.0999L30.029 57.5074L29.8557 67.5702L35.8774 67.7851L35.6181 57.6836L34.0386 55.029L35.5299 52.9121L35.5584 49.1104L29.9055 49.2401Z" fill="#F5A21D"/>
<path d="M35.5296 52.9124L36.3915 54.6623L34.9975 56.6414L34.0383 55.0292L35.5296 52.9124Z" fill="url(#paint10_linear_3000_4935)"/>
<path d="M29.8562 67.5706L30.7181 69.3205L36.7398 69.5359L35.8778 67.7855L29.8562 67.5706Z" fill="#8F2D16"/>
<path d="M64.5188 56.5962C64.5188 56.5962 63.3741 54.4958 60.568 54.4771C57.7619 54.4588 54.2713 55.3951 54.269 60.1817C54.2672 63.6317 55.9001 64.094 56.4195 64.6678L54.5667 65.2764L51.4666 69.5356C51.4666 69.5356 54.6341 72.2936 58.5723 70.2449C62.5104 68.1962 62.376 63.7034 60.0834 61.1157C59.0053 59.6748 59.6002 58.7322 60.8445 60.2298L61.6765 59.4064C62.2063 58.9997 62.9628 59.5334 62.9628 59.5334L63.3818 58.2873L63.0411 58.0568L64.5188 56.5948V56.5962Z" fill="#8F2D16"/>
<path d="M66.636 55.9004C66.636 55.9004 65.4913 53.8 62.6852 53.7813C59.8791 53.763 56.3885 54.6993 56.3862 59.4859C56.3839 64.273 59.528 63.3077 58.4797 64.8691C57.8132 65.7135 56.6839 64.5806 56.6839 64.5806L53.5837 68.8398C53.5837 68.8398 56.7513 71.5978 60.6894 69.5491C64.6276 67.5004 64.4932 63.0076 62.2006 60.4199C61.1224 58.979 61.7174 58.0364 62.9616 59.534L66.6355 55.8995L66.636 55.9004Z" fill="#F5A21D"/>
<path d="M53.9531 60.9202C54.3291 54.4064 48.9504 51.8985 44.1359 51.8169C39.3214 51.7353 37.4478 52.0207 37.4478 52.0207L37.3215 70.1845C37.3215 70.1845 42.5057 70.1529 45.1688 69.9754C47.8315 69.798 53.5776 67.4345 53.9535 60.9207L53.9531 60.9202ZM42.7903 64.3122L42.6568 57.345C46.7578 56.9018 48.4617 58.7739 47.9821 61.6737C47.5021 64.5735 42.7903 64.3122 42.7903 64.3122Z" fill="#8F2D16"/>
<path d="M53.9656 58.2108C54.3416 51.6969 48.9629 49.189 44.1483 49.1074C39.3338 49.0259 37.0847 49.3562 37.0847 49.3562L37.3336 67.475C37.3336 67.475 42.5177 67.4434 45.1808 67.2659C47.8435 67.0885 53.5896 64.725 53.9656 58.2112V58.2108ZM42.8028 61.6028L42.6693 54.6355C46.7703 54.1923 48.4742 56.0645 47.9946 58.9642C47.5146 61.864 42.8028 61.6028 42.8028 61.6028Z" fill="#F5A21D"/>
<path d="M58.1869 51.5731L54.9912 50.8798L54.5175 48.8552L53.4995 50.5557L54.684 55.6187L58.8239 51.7113L59.8419 50.0109L58.1869 51.5731Z" fill="#8F2D16"/>
<path d="M54.5166 48.8555L55.7016 53.9185L59.841 50.0111L54.5166 48.8555Z" fill="#E52A28"/>
<path d="M55.7028 53.9179L54.6843 55.6184L58.8242 51.711L59.8422 50.0105L55.7028 53.9179Z" fill="url(#paint11_linear_3000_4935)"/>
<path opacity="0.2" d="M12.6719 65.3273L12.3765 63.5823L24.8111 71.9361L23.937 73.1065L12.6719 65.3273Z" fill="url(#paint12_linear_3000_4935)"/>
<path opacity="0.2" d="M31.9203 55.1003L30.9611 57.6938L30.7475 67.6247L29.8562 67.5707L30.0295 57.5079L31.9203 55.1003Z" fill="url(#paint13_linear_3000_4935)"/>
<path d="M39.3973 60.8465L39.1127 49.8782C37.7295 49.9544 37.0952 50.1087 37.0952 50.1087L37.3341 67.4744C37.3341 67.4744 42.5183 67.4428 45.1814 67.2653C45.5628 67.2399 46.008 67.1695 46.4912 67.0482C46.4392 67.0522 46.3876 67.0562 46.3365 67.0598C42.6445 67.3255 39.4792 64.4931 39.3977 60.8465H39.3973Z" fill="#F5A21D"/>
<path opacity="0.2" d="M56.3875 59.4861C56.3856 62.8317 57.9208 63.3676 58.4877 63.92C58.0203 63.2134 56.8259 61.0564 57.329 58.0817C57.6566 56.1462 59.4532 54.7632 61.0766 53.8889C58.7026 54.2447 56.3893 55.5894 56.3875 59.4861Z" fill="url(#paint14_linear_3000_4935)"/>
<path opacity="0.2" d="M58.1468 70.2906C56.4193 69.6811 56.0194 68.0926 56.0194 68.0926L57.702 65.1669C57.1763 65.0733 56.6854 64.5811 56.6854 64.5811L53.5852 68.8402C53.5852 68.8402 55.4733 70.4836 58.1463 70.2906H58.1468Z" fill="url(#paint15_linear_3000_4935)"/>
<path d="M24.9719 50.1242L19.4353 46.5347L10.861 58.4121L8.71092 49.4028L7.04907 49.5638L10.513 70.5627L11.9586 70.2894L11.2614 60.15L25.3497 69.9296L27.1287 67.1975L17.8015 60.545L24.9719 50.1242Z" fill="#F8B125"/>
<path opacity="0.2" d="M29.896 49.7912L30.8452 49.739L30.4516 53.0722L31.6624 54.8881L29.8345 53.3811L29.896 49.7912Z" fill="url(#paint16_linear_3000_4935)"/>
<path d="M35.115 49.6372L34.9109 52.92L33.606 54.6396L32.0795 54.6436L31.1995 52.6957L31.6139 49.6443L35.115 49.6372Z" fill="#F8B125"/>
<path d="M32.4615 55.4506L31.7683 57.5438L31.9217 66.8589L35.1843 67.056L35.0341 57.7654L33.6663 55.3699L32.4615 55.4506Z" fill="#F8B125"/>
<path d="M5.93506 75.8448L7.48017 78.1244L15.4709 76.6134L14.185 74.7395L5.93506 75.8448Z" fill="url(#paint17_linear_3000_4935)"/>
<path d="M29.0112 66.3103L23.936 73.1068L25.378 75.3093L31.0662 69.3421L29.0112 66.3103Z" fill="url(#paint18_linear_3000_4935)"/>
<path d="M26.0196 49.9133L19.2817 59.8606L21.2336 61.1545L27.8339 52.5902L26.0196 49.9133Z" fill="url(#paint19_linear_3000_4935)"/>
<path d="M9.34375 47.9795L11.0427 56.0698L12.186 54.5098L11.4626 51.0995L9.34375 47.9795Z" fill="url(#paint20_linear_3000_4935)"/>
<path d="M12.6707 65.3274L14.185 74.7397L15.4709 76.6136L14.0538 67.2856L12.6707 65.3274Z" fill="url(#paint21_linear_3000_4935)"/>
<path d="M40.6375 50.2324L40.7058 53.2244C40.7058 53.2244 48.2535 52.2886 49.1534 56.3226C50.0538 60.3567 47.0627 62.6853 42.0002 63.2043C42.0002 63.2043 43.2752 65.5842 46.327 65.8718C49.3788 66.1594 53.6698 62.4753 53.1526 56.5465C52.7305 49.2074 40.6375 50.2319 40.6375 50.2319V50.2324Z" fill="#F8B125"/>
<path opacity="0.2" d="M55.2886 49.7661L56.0288 52.9294L58.6154 50.4884L55.2886 49.7661Z" fill="url(#paint22_linear_3000_4935)"/>
<path d="M59.841 50.0111L54.5166 48.8555L55.7016 53.9185L54.8338 49.1676L59.841 50.0111Z" fill="#F08D90"/>
<path d="M59.8426 50.0105L59.125 50.2303L55.7606 53.5675L55.7031 53.9179L59.8426 50.0105Z" fill="#B31918"/>
<path d="M55.7028 53.9179L54.6843 55.6184L58.8242 51.711L59.8422 50.0105L55.7028 53.9179Z" fill="#7C2414"/>
<path d="M63.3808 58.289L65.9036 56.0589C65.9036 56.0589 64.1038 54.2135 62.556 54.3321C61.0086 54.4507 58.4328 55.5667 58.2672 58.6332C58.1016 61.6998 60.3467 62.7431 60.0078 64.0119C59.6689 65.2808 58.9142 66.5671 57.7962 66.2028L56.937 68.3697C56.937 68.3697 58.0912 70.2569 60.1105 69.3973C62.1298 68.5377 63.7242 64.9924 62.6225 62.6289C61.5208 60.2655 60.3055 58.3871 61.6836 57.9778C63.0618 57.569 63.3803 58.2886 63.3803 58.2886L63.3808 58.289Z" fill="#F8B125"/>
<path opacity="0.55" d="M26.0197 49.9131L19.095 45.0806L11.0437 56.0698L9.31805 47.9344L1.07715 48.9318L4.09136 65.6457C5.68217 64.8691 7.30148 64.1633 8.90315 63.5043C12.3784 62.0312 15.9279 60.9024 19.528 60.0236L19.2823 59.8609L26.0202 49.9136L26.0197 49.9131Z" fill="#FFD301"/>
<path opacity="0.2" d="M13.9011 72.9732L7.62516 73.7691L3.40201 49.7415L1.27686 50.0433L5.92848 75.8347L14.1852 74.7397L13.9011 72.9732Z" fill="url(#paint23_linear_3000_4935)"/>
<path opacity="0.55" d="M34.0386 55.029L35.5303 52.9121L35.5589 49.1108L29.9055 49.2401L29.8345 53.3807L31.9198 55.0999L30.029 57.5075L30.0164 58.2552C31.8732 58.1027 33.7463 58.055 35.6281 58.0688L35.6181 57.6836L34.0386 55.029Z" fill="#FFD301"/>
<path opacity="0.55" d="M42.7387 58.2932L42.6686 54.6355C46.7696 54.1923 48.4735 56.0644 47.9939 58.9642C47.9789 59.0543 47.9599 59.1412 47.9373 59.225C49.8385 59.6018 51.7243 60.0093 53.5889 60.4618C53.787 59.7734 53.9178 59.0244 53.9648 58.2103C54.3408 51.6964 48.9621 49.1885 44.1476 49.107C39.3331 49.0254 37.084 49.3557 37.084 49.3557L37.2039 58.0872C39.0304 57.9205 40.9004 58.0551 42.7387 58.2927V58.2932Z" fill="#FFD301"/>
<path opacity="0.55" d="M62.9616 59.5347L66.6355 55.9001C66.6355 55.9001 65.4908 53.7997 62.6847 53.781C59.8786 53.7627 56.388 54.699 56.3857 59.4856C56.3857 60.2101 56.4577 60.8027 56.5758 61.2922C59.0547 61.9556 61.4545 62.7693 63.7616 63.8567C63.6014 62.5972 63.049 61.3778 62.2002 60.4197C61.122 58.9787 61.7169 58.0362 62.9612 59.5338L62.9616 59.5347Z" fill="#FFD301"/>
<path d="M1.17122 49.4565L8.74883 48.6909L11.0432 56.0697L9.31756 47.9343L1.07666 48.9317L1.17122 49.4565Z" fill="#FFF1BC"/>
<path d="M18.6934 45.6292L19.0951 45.0808L26.0203 49.9134L23.9259 53.0053L25.4213 50.0355L18.6934 45.6292Z" fill="#FFF1BC"/>
<path d="M29.9063 49.2403L35.5592 49.1106L35.5447 51.0647L35.2873 49.4231L29.9041 49.6077L29.9063 49.2403Z" fill="#FFF1BC"/>
<path d="M53.9834 57.6129C54.0056 51.5431 48.8119 49.1868 44.1476 49.1074C39.3336 49.0259 37.084 49.3562 37.084 49.3562L37.0881 49.6518L37.0944 50.1093C51.7673 48.1168 53.7712 54.8299 53.9834 57.6129Z" fill="#FFF1BC"/>
<path d="M62.6849 53.7812C60.2069 53.7647 57.1949 54.4941 56.5235 57.9624C56.3362 59.2027 56.4257 60.3329 56.4805 60.8082C56.4909 60.8751 56.5022 60.9406 56.514 61.0044C56.428 52.247 64.1341 53.7892 65.6222 55.0764C65.9435 55.3542 66.3113 55.8486 66.4484 56.0849L66.6352 55.8999C66.6352 55.8999 65.4905 53.7995 62.6845 53.7808L62.6849 53.7812Z" fill="#FFF1BC"/>
<g opacity="0.15">
<path opacity="0.15" d="M44.6918 63.297C44.7126 63.297 44.7126 63.2654 44.6918 63.2654C44.6711 63.2654 44.6711 63.297 44.6918 63.297Z" fill="#FFEAC6"/>
</g>
<path d="M28.3172 25.7318C29.0361 24.8726 30.1957 24.4665 31.3074 24.4758C32.3616 24.4852 33.3488 25.0238 34.0673 25.7505C34.9777 26.6288 35.4858 27.7903 36.0798 28.8763C36.6359 29.9152 37.1725 30.9919 37.4213 32.1533C37.4602 32.3299 37.4901 32.5082 37.5123 32.6875C37.5928 32.0392 37.562 31.3771 37.4213 30.7382C37.172 29.5768 36.6354 28.5 36.0798 27.4612C35.4858 26.3751 34.9777 25.2137 34.0673 24.3354C33.3484 23.6082 32.3616 23.0701 31.3074 23.0607C30.1957 23.0513 29.0361 23.4575 28.3172 24.3167C27.7231 25.0251 27.4928 25.9694 27.5027 26.8758C27.505 27.1028 27.5218 27.3288 27.5507 27.5535C27.6448 26.8914 27.8837 26.2485 28.3176 25.7318H28.3172Z" fill="#E1F2F9"/>
<path d="M36.8174 40.5878C36.7097 41.0559 36.6636 41.2735 36.8079 42.0029C36.7631 41.9614 36.8527 42.0444 36.8079 42.0029C42.8839 32.6067 50.5891 24.2488 59.4919 17.3836V15.9685C50.6307 22.8016 42.8802 31.2455 36.8174 40.5882V40.5878Z" fill="#E1F2F9"/>
<path d="M21.5413 39.3496C24.7899 38.9056 28.5104 38.0839 31.0305 35.3232L30.9907 35.2429C28.309 36.7731 24.5514 37.523 21.5413 37.9345C15.2835 38.7843 8.87182 38.4918 2.69092 37.1792V38.5944C8.87227 39.9069 15.2835 40.1999 21.5413 39.3496Z" fill="#E1F2F9"/>
<path d="M30.9569 35.3269C30.347 34.3407 29.7814 33.3286 29.2643 32.292C26.1202 34.2185 23.0314 36.1883 19.9963 38.1981C20.5008 38.1446 21.0048 38.0867 21.5075 38.0185C24.7561 37.5744 28.0626 36.9324 30.9569 35.3269Z" fill="#67C4DD"/>
<path d="M37.1052 34.2313C39.6792 32.7266 42.2889 31.2508 44.9326 29.8049C49.2924 24.7557 54.1679 20.1399 59.4679 16.0528C59.4679 16.018 59.4679 15.9828 59.4679 15.948C51.4795 19.7408 43.7639 23.7976 36.3311 28.0898C36.7785 28.9605 37.1817 29.862 37.3875 30.8224C37.5984 31.8233 37.5599 32.8813 37.2341 33.8537C37.1943 33.9808 37.1509 34.1065 37.1047 34.2313H37.1052Z" fill="#67C4DD"/>
<path d="M58.9668 4.052C49.66 8.358 40.7051 13.0113 32.1149 17.97C32.5488 18.2126 32.9818 18.4596 33.4171 18.711C33.0624 19.3629 32.6696 20.0049 32.2669 20.6282C32.0371 20.9777 31.8168 21.3366 31.5195 21.6291C30.9539 21.3175 30.3983 21.0058 29.8423 20.6942C29.6314 20.5617 29.3441 20.6656 29.2387 20.8734C28.8935 21.4588 28.5008 22.0255 28.0406 22.5355C27.4438 22.1695 26.852 21.7999 26.2611 21.4311C18.0515 26.4001 10.1933 31.6509 2.70215 37.1491V37.1923C5.3734 37.7603 8.08945 38.1366 10.8191 38.3127C16.2109 34.5306 21.7846 30.876 27.5366 27.3631C27.523 27.2058 27.5135 27.0479 27.5135 26.8897C27.5135 25.9833 27.7339 25.0385 28.3279 24.3305C29.0469 23.4615 30.2065 23.0558 31.3182 23.0745C32.0995 23.0817 32.8438 23.3742 33.4696 23.8249C41.8014 18.979 50.4861 14.4269 59.5098 10.2047C59.5089 8.71557 59.5089 7.22555 59.513 5.73552C59.4939 5.1363 59.298 4.55046 58.9673 4.052H58.9668Z" fill="#67C4DD"/>
<path d="M30.8037 6.0963C20.9761 11.6328 11.6032 17.5586 2.70215 23.8179V30.8466C16.5159 20.914 31.5254 11.804 47.643 3.72974C42.0299 4.51889 36.4164 5.30804 30.8037 6.0963Z" fill="#67C4DD"/>
<path d="M17.3642 7.98462C13.4478 8.5348 9.53231 9.08453 5.61547 9.63559C4.04366 9.834 2.75011 11.2411 2.70215 12.7993V17.5391C7.4601 14.2577 12.3488 11.0708 17.3642 7.98507V7.98462Z" fill="#67C4DD"/>
<path d="M32.7083 19.0578C32.0346 18.6695 31.3564 18.2896 30.6781 17.9263C30.247 18.4078 29.8538 18.9366 29.528 19.5126C29.4131 19.7676 29.0679 19.8621 28.8475 19.6918C28.3109 19.3708 27.7838 19.0306 27.2567 18.7096C26.7228 19.39 26.2369 20.1069 25.8021 20.8528L25.4505 20.9357L25.3687 21.6375C26.2215 22.1663 27.0839 22.7044 27.9372 23.2336C28.3973 22.7236 28.7901 22.1667 29.1353 21.5715C29.2407 21.3638 29.538 21.2599 29.7389 21.3923C30.2949 21.7039 30.86 22.0156 31.4161 22.3272C31.7133 22.0343 31.9337 21.666 32.1635 21.3263C32.5662 20.703 32.9589 20.061 33.3136 19.4092L33.3955 18.7074L32.7087 19.0583L32.7083 19.0578Z" fill="#8F2D16"/>
<path d="M30.7597 17.2246C31.6415 17.6968 32.5229 18.1974 33.3952 18.7071C33.0405 19.3589 32.6477 20.0009 32.2451 20.6242C32.0152 20.9644 31.7944 21.3327 31.4976 21.6251C30.9416 21.3135 30.3765 21.0018 29.8204 20.6902C29.6191 20.5578 29.3223 20.6617 29.2168 20.8694C28.8716 21.4642 28.4789 22.0215 28.0187 22.5315C27.1659 22.0028 26.3035 21.4646 25.4502 20.9354C25.9868 19.9059 26.6193 18.9237 27.3383 18.008C27.8654 18.329 28.3925 18.6692 28.9291 18.9902C29.1494 19.16 29.4946 19.0655 29.6096 18.8109C29.9353 18.2349 30.3285 17.7061 30.7597 17.2246Z" fill="#E52A28"/>
<path opacity="0.2" d="M33.0952 18.7792L30.9036 17.8242L29.6335 19.8733L31.5732 21.1636L33.0952 18.7792Z" fill="url(#paint24_linear_3000_4935)"/>
<path opacity="0.2" d="M29.2892 19.9634L27.4454 18.543C27.4454 18.543 26.4867 19.7517 25.9211 20.8253L27.8712 22.0362L29.2892 19.9634Z" fill="url(#paint25_linear_3000_4935)"/>
<path d="M27.3377 18.3128C27.8648 18.6338 28.3919 18.974 28.9286 19.295C29.1489 19.4648 29.4941 19.3703 29.609 19.1157C29.9348 18.5397 30.328 18.0109 30.7592 17.5294C31.5975 17.9784 32.4359 18.4532 33.2657 18.9374C33.3087 18.8607 33.3526 18.7845 33.3942 18.7078C32.5223 18.1977 31.6405 17.6975 30.7587 17.2253C30.3275 17.7069 29.9343 18.2356 29.6086 18.8117C29.4937 19.0667 29.1484 19.1612 28.9281 18.9909C28.3915 18.6699 27.8644 18.3297 27.3373 18.0087C26.6183 18.9249 25.9858 19.9067 25.4492 20.9361C25.4899 20.9615 25.5311 20.987 25.5718 21.0124C26.0817 20.0663 26.6722 19.1612 27.3373 18.3132L27.3377 18.3128Z" fill="#F08D90"/>
<defs>
<linearGradient id="paint0_linear_3000_4935" x1="26.9448" y1="15.7344" x2="35.7293" y2="38.7246" gradientUnits="userSpaceOnUse">
<stop offset="0.02" stop-color="#2FA5DE"/>
<stop offset="1" stop-color="#4ABDD0"/>
</linearGradient>
<linearGradient id="paint1_linear_3000_4935" x1="18.7466" y1="43.7172" x2="18.9816" y2="83.6578" gradientUnits="userSpaceOnUse">
<stop stop-color="#782016"/>
<stop offset="1" stop-color="#A83A17" stop-opacity="0"/>
</linearGradient>
<linearGradient id="paint2_linear_3000_4935" x1="57.677" y1="43.0621" x2="57.9146" y2="83.499" gradientUnits="userSpaceOnUse">
<stop stop-color="#782016"/>
<stop offset="1" stop-color="#A83A17" stop-opacity="0"/>
</linearGradient>
<linearGradient id="paint3_linear_3000_4935" x1="45.1449" y1="43.1358" x2="45.3824" y2="83.5723" gradientUnits="userSpaceOnUse">
<stop stop-color="#782016"/>
<stop offset="1" stop-color="#A83A17" stop-opacity="0"/>
</linearGradient>
<linearGradient id="paint4_linear_3000_4935" x1="55.5698" y1="43.0746" x2="55.8077" y2="83.5111" gradientUnits="userSpaceOnUse">
<stop stop-color="#782016"/>
<stop offset="1" stop-color="#A83A17" stop-opacity="0"/>
</linearGradient>
<linearGradient id="paint5_linear_3000_4935" x1="12.1608" y1="55.1052" x2="10.7413" y2="55.1392" gradientUnits="userSpaceOnUse">
<stop stop-color="#782016"/>
<stop offset="1" stop-color="#AA3B17"/>
</linearGradient>
<linearGradient id="paint6_linear_3000_4935" x1="21.5299" y1="62.6305" x2="19.0603" y2="60.5117" gradientUnits="userSpaceOnUse">
<stop stop-color="#782016"/>
<stop offset="1" stop-color="#AA3B17"/>
</linearGradient>
<linearGradient id="paint7_linear_3000_4935" x1="17.4338" y1="72.2607" x2="18.7908" y2="69.7513" gradientUnits="userSpaceOnUse">
<stop stop-color="#782016"/>
<stop offset="1" stop-color="#AA3B17"/>
</linearGradient>
<linearGradient id="paint8_linear_3000_4935" x1="36.4216" y1="52.5384" x2="35.3673" y2="52.3501" gradientUnits="userSpaceOnUse">
<stop stop-color="#782016"/>
<stop offset="1" stop-color="#AA3B17"/>
</linearGradient>
<linearGradient id="paint9_linear_3000_4935" x1="32.0062" y1="53.2839" x2="30.0122" y2="55.1787" gradientUnits="userSpaceOnUse">
<stop offset="0.52" stop-color="#782016"/>
<stop offset="1" stop-color="#AA3B17"/>
</linearGradient>
<linearGradient id="paint10_linear_3000_4935" x1="36.0381" y1="55.5472" x2="35.0061" y2="54.4967" gradientUnits="userSpaceOnUse">
<stop stop-color="#782016"/>
<stop offset="1" stop-color="#AA3B17"/>
</linearGradient>
<linearGradient id="paint11_linear_3000_4935" x1="58.0794" y1="54.3571" x2="57.3474" y2="52.9397" gradientUnits="userSpaceOnUse">
<stop stop-color="#782016"/>
<stop offset="1" stop-color="#AA3B17"/>
</linearGradient>
<linearGradient id="paint12_linear_3000_4935" x1="12.0989" y1="67.9794" x2="25.0033" y2="68.7827" gradientUnits="userSpaceOnUse">
<stop stop-color="#782016"/>
<stop offset="1" stop-color="#AA3B17"/>
</linearGradient>
<linearGradient id="paint13_linear_3000_4935" x1="29.792" y1="61.2706" x2="31.5264" y2="61.3786" gradientUnits="userSpaceOnUse">
<stop stop-color="#782016"/>
<stop offset="1" stop-color="#AA3B17"/>
</linearGradient>
<linearGradient id="paint14_linear_3000_4935" x1="56.415" y1="58.7041" x2="60.7571" y2="58.9744" gradientUnits="userSpaceOnUse">
<stop stop-color="#782016"/>
<stop offset="1" stop-color="#AA3B17"/>
</linearGradient>
<linearGradient id="paint15_linear_3000_4935" x1="53.6809" y1="67.2397" x2="58.3147" y2="67.5281" gradientUnits="userSpaceOnUse">
<stop stop-color="#782016"/>
<stop offset="1" stop-color="#AA3B17"/>
</linearGradient>
<linearGradient id="paint16_linear_3000_4935" x1="29.7414" y1="52.2236" x2="31.8172" y2="52.3528" gradientUnits="userSpaceOnUse">
<stop stop-color="#782016"/>
<stop offset="1" stop-color="#AA3B17"/>
</linearGradient>
<linearGradient id="paint17_linear_3000_4935" x1="10.5407" y1="75.3105" x2="10.7826" y2="76.7601" gradientUnits="userSpaceOnUse">
<stop stop-color="#782016"/>
<stop offset="1" stop-color="#A83A17" stop-opacity="0"/>
</linearGradient>
<linearGradient id="paint18_linear_3000_4935" x1="26.421" y1="70.1472" x2="28.4829" y2="71.9794" gradientUnits="userSpaceOnUse">
<stop stop-color="#782016"/>
<stop offset="1" stop-color="#A83A17" stop-opacity="0"/>
</linearGradient>
<linearGradient id="paint19_linear_3000_4935" x1="22.7667" y1="54.9757" x2="24.9501" y2="56.63" gradientUnits="userSpaceOnUse">
<stop stop-color="#782016"/>
<stop offset="1" stop-color="#A83A17" stop-opacity="0"/>
</linearGradient>
<linearGradient id="paint20_linear_3000_4935" x1="10.2029" y1="52.0229" x2="11.5054" y2="51.7722" gradientUnits="userSpaceOnUse">
<stop stop-color="#782016"/>
<stop offset="1" stop-color="#A83A17" stop-opacity="0"/>
</linearGradient>
<linearGradient id="paint21_linear_3000_4935" x1="13.524" y1="71.0558" x2="15.2137" y2="70.7836" gradientUnits="userSpaceOnUse">
<stop stop-color="#782016"/>
<stop offset="0.72" stop-color="#A83A17" stop-opacity="0"/>
</linearGradient>
<linearGradient id="paint22_linear_3000_4935" x1="55.1888" y1="51.3222" x2="58.5474" y2="51.5312" gradientUnits="userSpaceOnUse">
<stop stop-color="#782016"/>
<stop offset="1" stop-color="#AA3B17"/>
</linearGradient>
<linearGradient id="paint23_linear_3000_4935" x1="0.495854" y1="62.5367" x2="14.8849" y2="63.4324" gradientUnits="userSpaceOnUse">
<stop stop-color="#782016"/>
<stop offset="1" stop-color="#AA3B17"/>
</linearGradient>
<linearGradient id="paint24_linear_3000_4935" x1="29.6335" y1="19.4939" x2="33.0952" y2="19.4939" gradientUnits="userSpaceOnUse">
<stop stop-color="#782016"/>
<stop offset="1" stop-color="#AA3B17"/>
</linearGradient>
<linearGradient id="paint25_linear_3000_4935" x1="25.9211" y1="20.2894" x2="29.2892" y2="20.2894" gradientUnits="userSpaceOnUse">
<stop stop-color="#782016"/>
<stop offset="1" stop-color="#AA3B17"/>
</linearGradient>
</defs>
</svg>
