<svg width="57" height="58" viewBox="0 0 57 58" fill="none" xmlns="http://www.w3.org/2000/svg">
<g id="fi-rr-credit-card" clip-path="url(#clip0_1_695)">
<path id="Vector" d="M13.0627 40.8754C15.0302 40.8754 16.6252 39.2804 16.6252 37.3129C16.6252 35.3454 15.0302 33.7504 13.0627 33.7504C11.0952 33.7504 9.50018 35.3454 9.50018 37.3129C9.50018 39.2804 11.0952 40.8754 13.0627 40.8754Z" fill="#5F27BD"/>
<path id="Vector_2" d="M45.125 7.625H11.875C8.72671 7.62877 5.70845 8.88109 3.48227 11.1073C1.25609 13.3334 0.00377116 16.3517 0 19.5L0 38.5C0.00377116 41.6483 1.25609 44.6666 3.48227 46.8927C5.70845 49.1189 8.72671 50.3712 11.875 50.375H45.125C48.2733 50.3712 51.2916 49.1189 53.5177 46.8927C55.7439 44.6666 56.9962 41.6483 57 38.5V19.5C56.9962 16.3517 55.7439 13.3334 53.5177 11.1073C51.2916 8.88109 48.2733 7.62877 45.125 7.625ZM11.875 12.375H45.125C47.0147 12.375 48.8269 13.1257 50.1631 14.4619C51.4993 15.7981 52.25 17.6103 52.25 19.5H4.75C4.75 17.6103 5.50067 15.7981 6.83686 14.4619C8.17306 13.1257 9.98533 12.375 11.875 12.375ZM45.125 45.625H11.875C9.98533 45.625 8.17306 44.8743 6.83686 43.5381C5.50067 42.2019 4.75 40.3897 4.75 38.5V24.25H52.25V38.5C52.25 40.3897 51.4993 42.2019 50.1631 43.5381C48.8269 44.8743 47.0147 45.625 45.125 45.625Z" fill="#5F27BD"/>
</g>
<defs>
<clipPath id="clip0_1_695">
<rect width="57" height="57" fill="white" transform="translate(0 0.5)"/>
</clipPath>
</defs>
</svg>
