<svg width="51" height="52" viewBox="0 0 51 52" fill="none" xmlns="http://www.w3.org/2000/svg">
<g id="fi-rr-data-transfer" clip-path="url(#clip0_1_687)">
<path id="Vector" d="M17 0.5H8.5C6.24566 0.5 4.08365 1.39553 2.48959 2.98959C0.895533 4.58365 0 6.74566 0 9L0 11.125C0 13.3793 0.895533 15.5413 2.48959 17.1354C4.08365 18.7295 6.24566 19.625 8.5 19.625H10.625V23.875H6.375C5.81141 23.875 5.27091 24.0989 4.8724 24.4974C4.47388 24.8959 4.25 25.4364 4.25 26C4.25 26.5636 4.47388 27.1041 4.8724 27.5026C5.27091 27.9011 5.81141 28.125 6.375 28.125H19.125C19.6886 28.125 20.2291 27.9011 20.6276 27.5026C21.0261 27.1041 21.25 26.5636 21.25 26C21.25 25.4364 21.0261 24.8959 20.6276 24.4974C20.2291 24.0989 19.6886 23.875 19.125 23.875H14.875V19.625H17C19.2543 19.625 21.4163 18.7295 23.0104 17.1354C24.6045 15.5413 25.5 13.3793 25.5 11.125V9C25.5 6.74566 24.6045 4.58365 23.0104 2.98959C21.4163 1.39553 19.2543 0.5 17 0.5V0.5ZM21.25 11.125C21.25 12.2522 20.8022 13.3332 20.0052 14.1302C19.2082 14.9272 18.1272 15.375 17 15.375H8.5C7.37283 15.375 6.29183 14.9272 5.4948 14.1302C4.69777 13.3332 4.25 12.2522 4.25 11.125V9C4.25 7.87283 4.69777 6.79183 5.4948 5.9948C6.29183 5.19777 7.37283 4.75 8.5 4.75H17C18.1272 4.75 19.2082 5.19777 20.0052 5.9948C20.8022 6.79183 21.25 7.87283 21.25 9V11.125ZM42.5 23.875H38.25C35.9957 23.875 33.8337 24.7705 32.2396 26.3646C30.6455 27.9587 29.75 30.1207 29.75 32.375V43C29.75 45.2543 30.6455 47.4163 32.2396 49.0104C33.8337 50.6045 35.9957 51.5 38.25 51.5H42.5C44.7543 51.5 46.9163 50.6045 48.5104 49.0104C50.1045 47.4163 51 45.2543 51 43V32.375C51 30.1207 50.1045 27.9587 48.5104 26.3646C46.9163 24.7705 44.7543 23.875 42.5 23.875ZM46.75 43C46.75 44.1272 46.3022 45.2082 45.5052 46.0052C44.7082 46.8022 43.6272 47.25 42.5 47.25H38.25C37.1228 47.25 36.0418 46.8022 35.2448 46.0052C34.4478 45.2082 34 44.1272 34 43V32.375C34 31.2478 34.4478 30.1668 35.2448 29.3698C36.0418 28.5728 37.1228 28.125 38.25 28.125H42.5C43.6272 28.125 44.7082 28.5728 45.5052 29.3698C46.3022 30.1668 46.75 31.2478 46.75 32.375V43ZM29.75 9C29.75 8.43641 29.9739 7.89591 30.3724 7.4974C30.7709 7.09888 31.3114 6.875 31.875 6.875H36.125C37.8158 6.875 39.4373 7.54665 40.6328 8.74219C41.8284 9.93774 42.5 11.5592 42.5 13.25V17.5C42.5 18.0636 42.2761 18.6041 41.8776 19.0026C41.4791 19.4011 40.9386 19.625 40.375 19.625C39.8114 19.625 39.2709 19.4011 38.8724 19.0026C38.4739 18.6041 38.25 18.0636 38.25 17.5V13.25C38.25 12.6864 38.0261 12.1459 37.6276 11.7474C37.2291 11.3489 36.6886 11.125 36.125 11.125H31.875C31.3114 11.125 30.7709 10.9011 30.3724 10.5026C29.9739 10.1041 29.75 9.56359 29.75 9ZM25.5 43C25.5 43.5636 25.2761 44.1041 24.8776 44.5026C24.4791 44.9011 23.9386 45.125 23.375 45.125H17C15.3092 45.125 13.6877 44.4534 12.4922 43.2578C11.2966 42.0623 10.625 40.4408 10.625 38.75V34.5C10.625 33.9364 10.8489 33.3959 11.2474 32.9974C11.6459 32.5989 12.1864 32.375 12.75 32.375C13.3136 32.375 13.8541 32.5989 14.2526 32.9974C14.6511 33.3959 14.875 33.9364 14.875 34.5V38.75C14.875 39.3136 15.0989 39.8541 15.4974 40.2526C15.8959 40.6511 16.4364 40.875 17 40.875H23.375C23.9386 40.875 24.4791 41.0989 24.8776 41.4974C25.2761 41.8959 25.5 42.4364 25.5 43ZM42.5 43C42.5 43.4203 42.3754 43.8311 42.1419 44.1806C41.9084 44.53 41.5765 44.8024 41.1882 44.9632C40.7999 45.1241 40.3726 45.1662 39.9604 45.0842C39.5482 45.0022 39.1696 44.7998 38.8724 44.5026C38.5752 44.2054 38.3728 43.8268 38.2908 43.4146C38.2088 43.0024 38.2509 42.5751 38.4118 42.1868C38.5726 41.7985 38.845 41.4666 39.1944 41.2331C39.5439 40.9996 39.9547 40.875 40.375 40.875C40.9386 40.875 41.4791 41.0989 41.8776 41.4974C42.2761 41.8959 42.5 42.4364 42.5 43Z" fill="#5F27BD"/>
</g>
<defs>
<clipPath id="clip0_1_687">
<rect width="51" height="51" fill="white" transform="translate(0 0.5)"/>
</clipPath>
</defs>
</svg>
