<svg width="69" height="69" viewBox="0 0 69 69" fill="none" xmlns="http://www.w3.org/2000/svg">
<g id="fi-rr-bulb" clip-path="url(#clip0_1_763)">
<path id="Vector" d="M51.7334 6.57248C48.2242 3.43741 43.9265 1.31866 39.3028 0.444218C34.6792 -0.43022 29.9046 -0.0272282 25.4929 1.60982C21.0812 3.24688 17.1994 6.056 14.2653 9.7349C11.3313 13.4138 9.45597 17.8232 8.84127 22.4885C8.28922 26.5792 8.73073 30.7426 10.1285 34.6266C11.5262 38.5105 13.839 42.0005 16.8711 44.8014C18.7462 46.4457 20.2593 48.4616 21.3144 50.7213C22.3695 52.981 22.9438 55.4353 23.0006 57.9286V58.3915C23.0037 61.2042 24.1224 63.9008 26.1112 65.8896C28.1001 67.8785 30.7967 68.9972 33.6094 69.0002H35.3919C38.2046 68.9972 40.9012 67.8785 42.8901 65.8896C44.8789 63.9008 45.9976 61.2042 46.0006 58.3915V56.8131C46.0437 54.6093 46.5623 52.4408 47.521 50.456C48.4796 48.4712 49.8557 46.7169 51.5551 45.3131C54.3111 42.8994 56.5227 39.9276 58.0434 36.5946C59.5641 33.2616 60.3592 29.6436 60.3761 25.9801C60.3929 22.3166 59.6311 18.6914 58.1411 15.3446C56.6512 11.9977 54.467 9.00571 51.7334 6.56673V6.57248ZM35.3919 63.2502H33.6094C32.3212 63.2487 31.0863 62.7363 30.1754 61.8255C29.2646 60.9146 28.7522 59.6796 28.7506 58.3915C28.7506 58.3915 28.7305 57.644 28.7276 57.5002H40.2506V58.3915C40.2491 59.6796 39.7367 60.9146 38.8259 61.8255C37.915 62.7363 36.6801 63.2487 35.3919 63.2502ZM47.7544 40.9949C44.481 43.834 42.117 47.575 40.9579 51.7502H37.3756V31.0962C39.0515 30.5037 40.5034 29.4079 41.5326 27.9587C42.5619 26.5095 43.1183 24.7777 43.1256 23.0002C43.1256 22.2377 42.8227 21.5065 42.2836 20.9673C41.7444 20.4281 41.0131 20.1252 40.2506 20.1252C39.4882 20.1252 38.7569 20.4281 38.2177 20.9673C37.6786 21.5065 37.3756 22.2377 37.3756 23.0002C37.3756 23.7627 37.0727 24.494 36.5336 25.0332C35.9944 25.5723 35.2631 25.8752 34.5006 25.8752C33.7382 25.8752 33.0069 25.5723 32.4677 25.0332C31.9286 24.494 31.6256 23.7627 31.6256 23.0002C31.6256 22.2377 31.3227 21.5065 30.7836 20.9673C30.2444 20.4281 29.5131 20.1252 28.7506 20.1252C27.9882 20.1252 27.2569 20.4281 26.7177 20.9673C26.1786 21.5065 25.8756 22.2377 25.8756 23.0002C25.883 24.7777 26.4394 26.5095 27.4687 27.9587C28.4979 29.4079 29.9498 30.5037 31.6256 31.0962V51.7502H27.8249C26.5282 47.4642 24.0964 43.6088 20.7869 40.5924C17.9779 37.9749 15.9762 34.6086 15.0181 30.8906C14.06 27.1726 14.1855 23.2582 15.3796 19.6091C16.5738 15.9601 18.7869 12.7289 21.7577 10.2966C24.7285 7.86444 28.3331 6.3328 32.146 5.88248C32.9365 5.79424 33.7312 5.75009 34.5265 5.75023C39.4645 5.73555 44.2316 7.55752 47.901 10.862C50.0276 12.7583 51.7269 15.085 52.8861 17.6879C54.0453 20.2907 54.6381 23.1102 54.625 25.9595C54.612 28.8088 53.9935 31.6228 52.8104 34.2149C51.6274 36.807 49.9069 39.1181 47.763 40.9949H47.7544Z" fill="url(#paint0_linear_1_763)"/>
</g>
<defs>
<linearGradient id="paint0_linear_1_763" x1="34.4934" y1="-0.00646973" x2="34.4934" y2="69.0002" gradientUnits="userSpaceOnUse">
<stop offset="0.135417" stop-color="white"/>
<stop offset="0.75" stop-color="white"/>
</linearGradient>
<clipPath id="clip0_1_763">
<rect width="69" height="69" fill="white"/>
</clipPath>
</defs>
</svg>
