<svg width="55" height="56" viewBox="0 0 55 56" fill="none" xmlns="http://www.w3.org/2000/svg">
<g id="fi-rr-gallery" clip-path="url(#clip0_1_698)">
<path id="Vector" d="M43.5417 0.5H29.7917C26.7538 0.503639 23.8415 1.71202 21.6934 3.86009C19.5454 6.00815 18.337 8.92051 18.3333 11.9583V12.1875C15.747 12.7194 13.4231 14.1267 11.7533 16.1721C10.0835 18.2176 9.17 20.7762 9.16667 23.4167V23.6458C6.58032 24.1777 4.25642 25.585 2.58665 27.6305C0.916873 29.6759 0.00333328 32.2345 0 34.875L0 44.0417C0.00363884 47.0795 1.21202 49.9919 3.36009 52.1399C5.50815 54.288 8.42051 55.4964 11.4583 55.5H25.2083C28.2462 55.4964 31.1585 54.288 33.3066 52.1399C35.4546 49.9919 36.663 47.0795 36.6667 44.0417V43.8125C39.253 43.2806 41.5769 41.8733 43.2467 39.8279C44.9165 37.7824 45.83 35.2238 45.8333 32.5833V32.3542C48.4197 31.8223 50.7436 30.415 52.4134 28.3695C54.0831 26.3241 54.9967 23.7655 55 21.125V11.9583C54.9964 8.92051 53.788 6.00815 51.6399 3.86009C49.4919 1.71202 46.5795 0.503639 43.5417 0.5V0.5ZM4.58333 34.875C4.58333 33.0516 5.30766 31.303 6.59697 30.0136C7.88629 28.7243 9.63497 28 11.4583 28H25.2083C26.4542 28.0034 27.6756 28.3466 28.7409 28.9927C29.8062 29.6388 30.675 30.5633 31.2537 31.6667L23.336 39.6027L22.2475 38.505C21.436 37.6874 20.3455 37.2069 19.1945 37.1597C18.0436 37.1125 16.9173 37.5022 16.0417 38.2506L5.45188 47.3256C4.88853 46.3224 4.58964 45.1923 4.58333 44.0417V34.875ZM32.0833 44.0417C32.0833 45.865 31.359 47.6137 30.0697 48.903C28.7804 50.1923 27.0317 50.9167 25.2083 50.9167H11.4583C10.5796 50.9148 9.70959 50.7428 8.89625 50.4102L18.9933 41.75L20.0842 42.8523C20.9437 43.7115 22.1092 44.1942 23.3246 44.1942C24.5399 44.1942 25.7055 43.7115 26.565 42.8523L32.0833 37.3225V44.0417ZM41.25 32.5833C41.2441 34.0002 40.8006 35.3806 39.9802 36.5358C39.1598 37.6909 38.0025 38.5644 36.6667 39.0367V34.875C36.663 31.8372 35.4546 28.9248 33.3066 26.7768C31.1585 24.6287 28.2462 23.4203 25.2083 23.4167H13.75C13.75 21.5933 14.4743 19.8446 15.7636 18.5553C17.053 17.266 18.8016 16.5417 20.625 16.5417H34.375C36.1984 16.5417 37.947 17.266 39.2364 18.5553C40.5257 19.8446 41.25 21.5933 41.25 23.4167V32.5833ZM50.4167 21.125C50.4108 22.5418 49.9673 23.9223 49.1469 25.0774C48.3265 26.2326 47.1692 27.1061 45.8333 27.5783V23.4167C45.8297 20.3788 44.6213 17.4665 42.4733 15.3184C40.3252 13.1704 37.4128 11.962 34.375 11.9583H22.9167C22.9167 10.135 23.641 8.38629 24.9303 7.09697C26.2196 5.80766 27.9683 5.08333 29.7917 5.08333H43.5417C45.365 5.08333 47.1137 5.80766 48.403 7.09697C49.6923 8.38629 50.4167 10.135 50.4167 11.9583V21.125ZM9.16667 34.875C9.16667 34.4218 9.30107 33.9787 9.55288 33.6018C9.80469 33.225 10.1626 32.9312 10.5814 32.7578C11.0001 32.5843 11.4609 32.5389 11.9054 32.6274C12.35 32.7158 12.7583 32.9341 13.0788 33.2545C13.3993 33.575 13.6175 33.9834 13.706 34.4279C13.7944 34.8725 13.749 35.3332 13.5756 35.752C13.4021 36.1707 13.1084 36.5286 12.7315 36.7805C12.3547 37.0323 11.9116 37.1667 11.4583 37.1667C10.8505 37.1667 10.2677 36.9252 9.83788 36.4955C9.40811 36.0657 9.16667 35.4828 9.16667 34.875Z" fill="#5F27BD"/>
</g>
<defs>
<clipPath id="clip0_1_698">
<rect width="55" height="55" fill="white" transform="translate(0 0.5)"/>
</clipPath>
</defs>
</svg>
