<svg width="45" height="44" viewBox="0 0 45 44" fill="none" xmlns="http://www.w3.org/2000/svg">
<g id="fi-rr-calendar" clip-path="url(#clip0_1_668)">
<path id="Vector" d="M35.3333 3.66667H33.5V1.83333C33.5 1.3471 33.3068 0.880788 32.963 0.536971C32.6192 0.193154 32.1529 0 31.6667 0C31.1804 0 30.7141 0.193154 30.3703 0.536971C30.0265 0.880788 29.8333 1.3471 29.8333 1.83333V3.66667H15.1667V1.83333C15.1667 1.3471 14.9735 0.880788 14.6297 0.536971C14.2859 0.193154 13.8196 0 13.3333 0C12.8471 0 12.3808 0.193154 12.037 0.536971C11.6932 0.880788 11.5 1.3471 11.5 1.83333V3.66667H9.66667C7.23641 3.66958 4.90652 4.63628 3.18807 6.35474C1.46962 8.07319 0.502911 10.4031 0.5 12.8333L0.5 34.8333C0.502911 37.2636 1.46962 39.5935 3.18807 41.3119C4.90652 43.0304 7.23641 43.9971 9.66667 44H35.3333C37.7636 43.9971 40.0935 43.0304 41.8119 41.3119C43.5304 39.5935 44.4971 37.2636 44.5 34.8333V12.8333C44.4971 10.4031 43.5304 8.07319 41.8119 6.35474C40.0935 4.63628 37.7636 3.66958 35.3333 3.66667ZM4.16667 12.8333C4.16667 11.3746 4.74613 9.9757 5.77758 8.94425C6.80903 7.9128 8.20798 7.33333 9.66667 7.33333H35.3333C36.792 7.33333 38.191 7.9128 39.2224 8.94425C40.2539 9.9757 40.8333 11.3746 40.8333 12.8333V14.6667H4.16667V12.8333ZM35.3333 40.3333H9.66667C8.20798 40.3333 6.80903 39.7539 5.77758 38.7224C4.74613 37.691 4.16667 36.292 4.16667 34.8333V18.3333H40.8333V34.8333C40.8333 36.292 40.2539 37.691 39.2224 38.7224C38.191 39.7539 36.792 40.3333 35.3333 40.3333Z" fill="#9854CB"/>
<path id="Vector_2" d="M22.5 30.25C24.0188 30.25 25.25 29.0188 25.25 27.5C25.25 25.9812 24.0188 24.75 22.5 24.75C20.9812 24.75 19.75 25.9812 19.75 27.5C19.75 29.0188 20.9812 30.25 22.5 30.25Z" fill="#9854CB"/>
<path id="Vector_3" d="M13.333 30.25C14.8518 30.25 16.083 29.0188 16.083 27.5C16.083 25.9812 14.8518 24.75 13.333 24.75C11.8143 24.75 10.583 25.9812 10.583 27.5C10.583 29.0188 11.8143 30.25 13.333 30.25Z" fill="#9854CB"/>
<path id="Vector_4" d="M31.6669 30.25C33.1857 30.25 34.4169 29.0188 34.4169 27.5C34.4169 25.9812 33.1857 24.75 31.6669 24.75C30.1481 24.75 28.9169 25.9812 28.9169 27.5C28.9169 29.0188 30.1481 30.25 31.6669 30.25Z" fill="#9854CB"/>
</g>
<defs>
<clipPath id="clip0_1_668">
<rect width="44" height="44" fill="white" transform="translate(0.5)"/>
</clipPath>
</defs>
</svg>
