<svg width="62" height="62" viewBox="0 0 62 62" fill="none" xmlns="http://www.w3.org/2000/svg">
<g id="u:award">
<path id="Vector" d="M53.9137 44.5625L46.9129 32.4725C48.3454 29.8414 49.0918 26.8917 49.0829 23.8958C49.0829 19.0998 47.1777 14.5003 43.7864 11.109C40.3951 7.7177 35.7955 5.8125 30.9995 5.8125C26.2035 5.8125 21.604 7.7177 18.2127 11.109C14.8214 14.5003 12.9162 19.0998 12.9162 23.8958C12.9073 26.8917 13.6536 29.8414 15.0862 32.4725L8.08537 44.5625C7.8582 44.956 7.73881 45.4024 7.73926 45.8567C7.73971 46.3111 7.85997 46.7573 8.08793 47.1503C8.31588 47.5433 8.64345 47.8693 9.0376 48.0953C9.43175 48.3213 9.87853 48.4393 10.3329 48.4375H17.747L21.5187 54.7925C21.6459 55.0031 21.8024 55.1945 21.9837 55.3608C22.4626 55.8224 23.1011 56.0815 23.7662 56.0842H24.1279C24.5179 56.0308 24.8905 55.889 25.2174 55.6696C25.5442 55.4502 25.8166 55.1591 26.0137 54.8183L30.9995 46.2417L35.9854 54.8958C36.1854 55.2317 36.459 55.5179 36.7857 55.7327C37.1124 55.9475 37.4835 56.0853 37.8712 56.1358H38.2329C38.9069 56.1399 39.5559 55.8803 40.0412 55.4125C40.215 55.2556 40.3631 55.0726 40.4804 54.87L44.252 48.515H51.6662C52.1214 48.5168 52.569 48.3983 52.9637 48.1715C53.3584 47.9446 53.6861 47.6176 53.9137 47.2233C54.1551 46.8215 54.2826 46.3616 54.2826 45.8929C54.2826 45.4242 54.1551 44.9643 53.9137 44.5625ZM23.7404 48.515L21.4412 44.6658C21.2148 44.2839 20.8938 43.9668 20.5092 43.7451C20.1246 43.5234 19.6893 43.4045 19.2454 43.4H14.7762L18.4704 36.9933C21.0142 39.4446 24.2204 41.0971 27.6929 41.7467L23.7404 48.515ZM30.9995 36.8125C28.4449 36.8125 25.9476 36.0549 23.8234 34.6356C21.6993 33.2163 20.0437 31.199 19.0661 28.8388C18.0885 26.4786 17.8327 23.8815 18.3311 21.3759C18.8295 18.8703 20.0596 16.5688 21.8661 14.7624C23.6725 12.9559 25.974 11.7257 28.4796 11.2274C30.9852 10.729 33.5823 10.9848 35.9425 11.9624C38.3027 12.94 40.3201 14.5956 41.7394 16.7197C43.1587 18.8439 43.9162 21.3412 43.9162 23.8958C43.9162 27.3215 42.5553 30.607 40.133 33.0293C37.7107 35.4516 34.4253 36.8125 30.9995 36.8125ZM42.7537 43.4C42.3098 43.4045 41.8745 43.5234 41.4899 43.7451C41.1053 43.9668 40.7843 44.2839 40.5579 44.6658L38.2587 48.515L34.332 41.6692C37.7924 41.0063 40.9866 39.3553 43.5287 36.9158L47.2229 43.3225L42.7537 43.4Z" fill="#9854CB"/>
</g>
</svg>
