<svg width="58" height="58" viewBox="0 0 58 58" fill="none" xmlns="http://www.w3.org/2000/svg">
<g id="u:web-grid-alt">
<path id="Vector" d="M50.75 4.83337H7.24998C6.60904 4.83337 5.99435 5.08799 5.54114 5.5412C5.08793 5.99441 4.83331 6.6091 4.83331 7.25004V50.75C4.83331 51.391 5.08793 52.0057 5.54114 52.4589C5.99435 52.9121 6.60904 53.1667 7.24998 53.1667H50.75C51.3909 53.1667 52.0056 52.9121 52.4588 52.4589C52.912 52.0057 53.1666 51.391 53.1666 50.75V7.25004C53.1666 6.6091 52.912 5.99441 52.4588 5.5412C52.0056 5.08799 51.3909 4.83337 50.75 4.83337ZM26.5833 48.3334H9.66665V24.1667H26.5833V48.3334ZM48.3333 48.3334H31.4166V24.1667H48.3333V48.3334ZM48.3333 19.3334H9.66665V9.66671H48.3333V19.3334Z" fill="#5F27BD"/>
</g>
</svg>
