<svg width="69" height="65" viewBox="0 0 69 65" fill="none" xmlns="http://www.w3.org/2000/svg">
<path id="Vector" d="M51.7721 23.2336C51.7721 25.0013 51.0159 26.6966 49.6698 27.9466C48.3237 29.1966 46.498 29.8988 44.5943 29.8988C42.6906 29.8988 40.8649 29.1966 39.5188 27.9466C38.1727 26.6966 37.4165 25.0013 37.4165 23.2336C37.4165 21.4659 38.1727 19.7706 39.5188 18.5207C40.8649 17.2707 42.6906 16.5685 44.5943 16.5685C46.498 16.5685 48.3237 17.2707 49.6698 18.5207C51.0159 19.7706 51.7721 21.4659 51.7721 23.2336ZM51.7549 41.5388C51.5972 45.7748 50.4583 49.9295 48.4158 53.72C46.5338 57.0248 43.708 59.7844 40.2484 61.6962C36.7887 63.6079 32.8288 64.5979 28.8031 64.5575H25.932V49.8942C25.9192 47.4231 24.8563 45.0566 22.9746 43.3092C21.0928 41.5619 18.5443 40.5749 15.8831 40.563H0.091876V37.8969C0.048412 34.1588 1.11455 30.4817 3.17334 27.2692C5.23213 24.0566 8.20403 21.4326 11.763 19.6851C15.8451 17.7885 20.3193 16.7309 24.8812 16.5845C29.064 11.5676 34.4356 7.5133 40.579 4.73633C46.7225 1.95936 53.4725 0.534425 60.3051 0.572141C61.442 0.56547 62.5692 0.767251 63.622 1.16591C64.6748 1.56458 65.6324 2.15228 66.4401 2.89533C67.2478 3.63838 67.8896 4.52216 68.3286 5.496C68.7677 6.46983 68.9955 7.51457 68.9989 8.57031C69.0475 14.9268 67.517 21.208 64.5263 26.9259C61.5356 32.6438 57.1652 37.6443 51.7549 41.5388ZM6.0753 35.2309H12.5698C14.702 30.8212 17.2067 26.5751 20.0606 22.5325C18.0784 22.9607 16.1576 23.605 14.3384 24.452C12.1504 25.5249 10.2634 27.0586 8.82852 28.9304C7.39362 30.8021 6.45071 32.9599 6.0753 35.2309ZM45.3494 46.0151C40.9958 48.6651 36.4231 50.9909 31.6742 52.9708V59.0015C34.1199 58.6529 36.4436 57.7773 38.4594 56.4449C40.4751 55.1125 42.1268 53.3602 43.2822 51.3285C44.1944 49.6392 44.8883 47.8557 45.3494 46.0151ZM63.2566 8.49566C63.2357 7.8016 62.924 7.1425 62.3878 6.65855C61.8516 6.1746 61.1332 5.90398 60.3855 5.90426C45.5705 6.29617 35.5503 11.567 25.8803 24.0921C23.1819 27.6998 20.809 31.5084 18.7858 35.4788C21.9208 36.021 24.8056 37.4319 27.0605 39.5257C29.3155 41.6196 30.8348 44.2984 31.4187 47.2095C35.6946 45.3308 39.7961 43.1274 43.6813 40.6217C57.1584 31.6317 62.8346 22.3272 63.2566 8.49566ZM17.6689 48.2386C19.2732 49.7436 20.1731 51.7757 20.1731 53.8933C20.1731 56.0109 19.2732 58.043 17.6689 59.548C15.0648 61.9635 7.26969 63.4538 4.0368 63.9843L0 64.6428L0.709168 60.8944C1.28339 57.8924 2.88548 50.654 5.48672 48.2359C7.12828 46.782 9.30985 45.9711 11.5784 45.9716C13.8469 45.9721 16.0281 46.784 17.6689 48.2386ZM14.4475 53.8933C14.4485 53.5431 14.3747 53.1961 14.2303 52.8726C14.0859 52.549 13.8738 52.2553 13.6063 52.0084C13.0678 51.5086 12.3377 51.2278 11.5764 51.2278C10.8151 51.2278 10.0849 51.5086 9.54649 52.0084C8.45185 53.8433 7.68305 55.8301 7.26969 57.8924C9.49138 57.5069 11.6319 56.7922 13.6091 55.7755C13.8758 55.5287 14.0872 55.2353 14.2311 54.9123C14.375 54.5892 14.4485 54.2429 14.4475 53.8933Z" fill="url(#paint0_linear_1_757)"/>
<defs>
<linearGradient id="paint0_linear_1_757" x1="34.5" y1="0.571411" x2="34.5" y2="64.6428" gradientUnits="userSpaceOnUse">
<stop offset="0.135417" stop-color="white"/>
<stop offset="0.75" stop-color="white"/>
</linearGradient>
</defs>
</svg>
